<?xml version="1.0" standalone="no"?>
<!DOCTYPE svg PUBLIC "-//W3C//DTD SVG 1.1//EN" "http://www.w3.org/Graphics/SVG/1.1/DTD/svg11.dtd" >
<svg xmlns="http://www.w3.org/2000/svg" width="100%" height="100%">
<metadata>
Created by FontXChange 20110222 at Wed Sep 25 17:38:28 2013
 By gummy
Copyright (c) 2010 by Henrik Kubel,. All rights reserved.
</metadata>
<defs>
<font id="Flavin" horiz-adv-x="546" >
  <font-face 
    font-family="Flavin"
    font-weight="400"
    font-stretch="normal"
    units-per-em="1000"
    panose-1="2 0 5 6 3 0 0 2 0 3"
    ascent="750"
    descent="-250"
    x-height="451"
    cap-height="704"
    bbox="-83 -268 1156 972"
    underline-thickness="20"
    underline-position="-113"
    stemh="48"
    stemv="50"
    unicode-range="U+0020-FB02"
  />
<missing-glyph horiz-adv-x="0" 
 />
    <glyph glyph-name="fi" unicode="fi" horiz-adv-x="545" 
d="M468 430v-408c0 -18 -12 -26 -25 -26s-25 8 -25 26v383h-252v-383c0 -18 -12 -26 -25 -26s-25 8 -25 26v383h-84c-18 0 -25 11 -25 23c0 11 7 23 25 23h84v93c0 127 86 184 194 184c51 0 102 -13 127 -26c16 -8 21 -16 21 -24c0 -9 -6 -22 -22 -22c-10 0 -19 5 -31 10
c-33 14 -67 18 -96 18c-71 0 -143 -24 -143 -151v-82h261c4 3 10 5 16 5c13 0 25 -8 25 -26z" />
    <glyph glyph-name="fl" unicode="fl" horiz-adv-x="564" 
d="M487 678v-656c0 -18 -12 -26 -25 -26s-25 8 -25 26v383h-271v-383c0 -18 -12 -26 -25 -26s-25 8 -25 26v383h-84c-18 0 -25 11 -25 23c0 11 7 23 25 23h84v110c0 97 60 166 160 166c27 0 91 -5 91 -35c0 -10 -7 -24 -21 -24c-4 0 -8 1 -11 2c-20 7 -38 12 -60 12
c-73 0 -109 -55 -109 -131v-100h271v227c0 18 12 26 25 26s25 -8 25 -26z" />
    <glyph glyph-name=".notdef" horiz-adv-x="0" 
 />
    <glyph glyph-name=".null" horiz-adv-x="0" 
 />
    <glyph glyph-name="currency" unicode="&#xa4;" horiz-adv-x="640" 
d="M121 345c0 46 16 89 42 123l-78 78c-6 6 -8 12 -8 18c0 13 12 24 24 24c6 0 12 -2 18 -8l78 -79c34 27 77 44 124 44c46 0 89 -16 123 -43l77 78c6 6 12 8 18 8c12 0 24 -11 24 -24c0 -6 -2 -12 -8 -18l-78 -77c27 -34 44 -78 44 -124c0 -47 -17 -90 -44 -124l78 -77
c6 -6 8 -12 8 -18c0 -13 -12 -24 -24 -24c-6 0 -12 2 -18 8l-77 77c-34 -26 -77 -42 -123 -42c-47 0 -90 16 -124 43l-78 -78c-6 -6 -12 -8 -18 -8c-12 0 -24 11 -24 24c0 6 2 12 8 18l78 78c-26 34 -42 76 -42 123zM171 345c0 -87 63 -157 150 -157s150 70 150 157
s-63 157 -150 157s-150 -70 -150 -157z" />
    <glyph glyph-name="space" unicode=" " horiz-adv-x="200" 
 />
    <glyph glyph-name="exclam" unicode="!" horiz-adv-x="278" 
d="M138 225c-14 0 -24 10 -25 25c-19 371 -20 411 -20 417c0 27 22 43 45 43s45 -16 45 -43c0 -6 -1 -46 -20 -417c-1 -15 -11 -25 -25 -25zM77 52c0 34 28 62 62 62s62 -28 62 -62s-28 -62 -62 -62s-62 28 -62 62z" />
    <glyph glyph-name="quotedbl" unicode="&#x22;" horiz-adv-x="395" 
d="M127 678v-273c0 -18 -12 -26 -25 -26s-25 8 -25 26v273c0 18 12 26 25 26s25 -8 25 -26zM318 678v-273c0 -18 -12 -26 -25 -26s-25 8 -25 26v273c0 18 12 26 25 26s25 -8 25 -26z" />
    <glyph glyph-name="numbersign" unicode="#" horiz-adv-x="700" 
d="M598 223h-105v-201c0 -18 -12 -26 -25 -26s-25 8 -25 26v201h-156v-201c0 -18 -12 -26 -25 -26s-25 8 -25 26v201h-105c-18 0 -25 11 -25 23s7 24 25 24h105v155h-105c-18 0 -25 11 -25 23s7 24 25 24h105v206c0 18 12 26 25 26s25 -8 25 -26v-206h156v206
c0 18 12 26 25 26s25 -8 25 -26v-206h105c18 0 25 -12 25 -24s-7 -23 -25 -23h-105v-155h105c18 0 25 -12 25 -24s-7 -23 -25 -23zM287 425v-155h156v155h-156z" />
    <glyph glyph-name="dollar" unicode="$" horiz-adv-x="574" 
d="M348 807l-9 -100c43 -5 96 -23 126 -42c11 -7 17 -14 17 -24s-7 -20 -21 -20c-6 0 -13 2 -21 6c-34 17 -63 32 -104 38l-25 -283c96 -41 186 -84 186 -199c0 -104 -74 -191 -221 -193l-11 -132c-1 -15 -11 -20 -21 -20c-12 0 -21 8 -21 20c0 5 2 28 5 61l6 73
c-51 4 -111 22 -140 41c-11 7 -17 15 -17 25c0 13 9 23 23 23c6 0 12 -2 19 -5c43 -21 72 -35 119 -41l28 315c-82 35 -173 75 -173 185c0 112 93 175 195 175h9l12 135c1 15 10 20 20 20c12 0 22 -6 22 -20c0 -4 -1 -17 -3 -38zM448 179c0 82 -66 121 -142 154l-26 -300
c123 3 168 79 168 146zM140 538c0 -74 57 -107 130 -139l23 269h-5c-78 0 -148 -47 -148 -130z" />
    <glyph glyph-name="percent" unicode="%" horiz-adv-x="744" 
d="M335 546c0 -87 -54 -153 -144 -153c-91 0 -144 67 -144 153c0 88 54 154 144 154c89 0 144 -65 144 -154zM288 546c0 74 -42 114 -97 114c-56 0 -97 -41 -97 -114c0 -71 40 -113 97 -113c56 0 97 41 97 113zM599 669l-431 -662c-5 -8 -11 -13 -20 -13c-12 0 -23 8 -23 19
c0 5 2 10 5 16l431 662c5 8 11 13 20 13c12 0 23 -8 23 -19c0 -5 -2 -10 -5 -16zM697 149c0 -87 -54 -153 -144 -153c-91 0 -144 67 -144 153c0 88 54 154 144 154c89 0 144 -65 144 -154zM650 149c0 74 -42 114 -97 114c-56 0 -97 -41 -97 -114c0 -71 40 -113 97 -113
c56 0 97 41 97 113z" />
    <glyph glyph-name="ampersand" unicode="&#x26;" horiz-adv-x="741" 
d="M534 166l142 -131c7 -7 8 -15 8 -19c0 -13 -10 -23 -25 -23c-7 0 -13 3 -19 9l-135 125c-45 -57 -112 -137 -236 -137c-113 0 -192 66 -192 170c0 70 36 151 142 231c-61 62 -85 115 -85 168c0 83 59 151 154 151c86 0 136 -56 136 -122c0 -37 -16 -82 -53 -104
c-3 -2 -9 -5 -15 -5c-9 0 -20 6 -20 21c0 7 2 10 7 15c21 21 32 33 32 65c0 63 -41 88 -88 88c-55 0 -102 -34 -102 -100c0 -50 27 -99 64 -134l251 -236c66 93 90 178 101 218c5 18 13 25 26 25s23 -8 23 -21c0 -29 -45 -153 -116 -254zM472 158l-220 203
c-69 -51 -123 -123 -123 -199c0 -68 44 -129 141 -129c73 0 135 35 202 125z" />
    <glyph glyph-name="quotesingle" unicode="'" horiz-adv-x="204" 
d="M127 678v-273c0 -18 -12 -26 -25 -26s-25 8 -25 26v273c0 18 12 26 25 26s25 -8 25 -26z" />
    <glyph glyph-name="parenleft" unicode="(" horiz-adv-x="378" 
d="M110 323c0 -271 128 -392 220 -463c9 -7 13 -11 13 -20c0 -15 -12 -24 -22 -24c-3 0 -10 1 -19 4c-61 21 -247 210 -247 503c0 289 182 480 247 503c9 3 16 4 19 4c10 0 22 -9 22 -24c0 -9 -4 -13 -13 -20c-95 -73 -220 -195 -220 -463z" />
    <glyph glyph-name="parenright" unicode=")" horiz-adv-x="378" 
d="M268 323c0 271 -128 392 -220 463c-9 7 -13 11 -13 20c0 15 12 24 22 24c3 0 10 -1 19 -4c61 -21 247 -210 247 -503c0 -289 -182 -480 -247 -503c-9 -3 -16 -4 -19 -4c-10 0 -22 9 -22 24c0 9 4 13 13 20c95 73 220 195 220 463z" />
    <glyph glyph-name="asterisk" unicode="*" horiz-adv-x="502" 
d="M292 505c0 -4 -1 -8 -1 -10l94 -34c28 -10 40 -21 40 -39c0 -23 -19 -36 -32 -36c-11 0 -27 8 -39 20l-74 70c-6 -5 -11 -9 -19 -11c21 -110 22 -118 22 -126c0 -22 -8 -39 -32 -39s-32 17 -32 39c0 8 1 16 22 126c-8 2 -13 6 -19 11l-74 -70c-12 -12 -28 -20 -39 -20
c-13 0 -32 13 -32 36c0 18 12 29 40 39l94 34c0 2 -1 6 -1 10s1 8 1 10l-94 34c-28 10 -40 21 -40 39c0 23 19 36 32 36c11 0 27 -8 39 -20l74 -70c6 5 11 9 19 11c-21 110 -22 118 -22 126c0 22 8 39 32 39s32 -17 32 -39c0 -8 -1 -16 -22 -126c8 -2 13 -6 19 -11l74 70
c12 12 28 20 39 20c13 0 32 -13 32 -36c0 -18 -12 -29 -40 -39l-94 -34c0 -2 1 -6 1 -10z" />
    <glyph glyph-name="plus" unicode="+" horiz-adv-x="594" 
d="M322 369h170c18 0 25 -12 25 -24c0 -13 -7 -24 -25 -24h-170v-169c0 -18 -12 -26 -25 -26s-25 8 -25 26v169h-170c-18 0 -25 11 -25 24c0 12 7 24 25 24h170v179c0 18 12 26 25 26s25 -8 25 -26v-179z" />
    <glyph glyph-name="comma" unicode="," horiz-adv-x="322" 
d="M241 122l-114 -292c-5 -12 -13 -19 -25 -19c-13 0 -25 9 -25 22c0 3 1 9 4 16l115 295c5 13 15 18 24 18c10 0 25 -6 25 -23c0 -6 -2 -12 -4 -17z" />
    <glyph glyph-name="hyphen" unicode="-" horiz-adv-x="414" 
d="M313 251h-212c-17 0 -24 11 -24 24c0 12 7 24 24 24h212c17 0 24 -12 24 -24c0 -13 -7 -24 -24 -24z" />
    <glyph glyph-name="period" unicode="." horiz-adv-x="278" 
d="M77 52c0 34 28 62 62 62s62 -28 62 -62s-28 -62 -62 -62s-62 28 -62 62z" />
    <glyph glyph-name="slash" unicode="/" horiz-adv-x="516" 
d="M436 785l-311 -771c-5 -13 -15 -18 -24 -18c-14 0 -24 10 -24 22c0 4 1 10 3 14l311 770c6 15 15 18 23 18c11 0 25 -7 25 -21c0 -4 -1 -9 -3 -14z" />
    <glyph glyph-name="zero" unicode="0" horiz-adv-x="537" 
d="M47 344c0 217 83 356 221 356c139 0 222 -140 222 -356c0 -217 -84 -355 -222 -355c-137 0 -221 137 -221 355zM437 345c0 183 -60 307 -169 307s-167 -125 -167 -307s58 -308 167 -308s169 125 169 308z" />
    <glyph glyph-name="one" unicode="1" horiz-adv-x="443" 
d="M255 23v602l-164 -132c-6 -6 -13 -9 -21 -9c-15 0 -23 12 -23 24c0 7 3 14 9 19l199 162c7 6 17 10 25 10c14 0 26 -10 26 -31v-645c0 -19 -12 -27 -25 -27s-26 8 -26 27z" />
    <glyph glyph-name="two" unicode="2" horiz-adv-x="514" 
d="M117 47h324c18 0 26 -10 26 -22s-8 -24 -26 -25h-364c-20 0 -29 12 -29 26c0 6 2 15 8 22c94 110 154 173 230 262c54 63 111 132 111 216s-57 127 -140 127c-60 0 -107 -23 -142 -42c-10 -5 -16 -9 -24 -9c-13 0 -23 9 -23 22c0 8 3 14 11 21c27 23 109 55 186 55
c119 0 185 -75 185 -171c0 -91 -60 -168 -124 -243c-54 -63 -209 -239 -209 -239z" />
    <glyph glyph-name="three" unicode="3" horiz-adv-x="513" 
d="M81 686h359c12 0 26 -10 26 -27c0 -8 -3 -16 -8 -22l-245 -243c20 2 19 3 35 3c112 0 218 -48 218 -180c0 -156 -147 -228 -289 -228c-34 0 -78 4 -105 13c-20 7 -25 13 -25 24c0 19 14 24 25 24c19 0 47 -14 105 -14c110 0 238 50 238 179c0 102 -79 138 -182 138
c-42 0 -56 -6 -69 -6c-17 0 -26 10 -26 23c0 6 2 12 11 22l246 244h-314c-19 0 -27 12 -27 25s8 25 27 25z" />
    <glyph glyph-name="four" unicode="4" horiz-adv-x="560" 
d="M37 255l326 415c7 12 16 19 28 19c14 0 26 -8 26 -27v-417h90c19 0 26 -10 26 -22s-7 -22 -26 -22h-90v-178c0 -19 -11 -27 -25 -27c-13 0 -24 8 -24 27v178h-311c-17 0 -30 10 -30 27c0 9 4 18 10 27zM368 245v360l-285 -360h285z" />
    <glyph glyph-name="five" unicode="5" horiz-adv-x="498" 
d="M395 217c0 108 -77 149 -179 149c-68 0 -97 -18 -123 -18c-14 0 -27 5 -27 29l24 283c0 16 14 26 28 26h307c19 0 26 -12 26 -25s-7 -25 -26 -25h-289l-20 -239c35 9 68 15 108 15c117 0 223 -52 223 -192c0 -160 -139 -231 -283 -231c-38 0 -117 5 -117 39
c0 13 12 21 25 21c16 0 37 -13 95 -13c113 0 228 50 228 181z" />
    <glyph glyph-name="six" unicode="6" horiz-adv-x="561" 
d="M514 218c0 -126 -96 -228 -238 -228c-143 0 -229 102 -229 244c0 219 203 395 397 486c6 3 13 6 21 6c13 0 22 -8 22 -20c0 -14 -14 -21 -29 -28c-108 -52 -269 -162 -328 -302c48 54 121 65 164 65c130 0 220 -101 220 -223zM460 216c0 102 -67 180 -177 180
c-108 0 -182 -74 -182 -178c0 -102 70 -182 182 -182c113 0 177 81 177 180z" />
    <glyph glyph-name="seven" unicode="7" horiz-adv-x="494" 
d="M406 636h-353c-19 0 -26 12 -26 25s7 25 26 25h384c18 0 30 -11 30 -26c0 -9 -4 -21 -7 -27l-286 -619c-4 -11 -13 -18 -26 -18c-16 0 -29 10 -29 24c0 4 1 10 5 18z" />
    <glyph glyph-name="eight" unicode="8" horiz-adv-x="555" 
d="M278 700c120 0 203 -77 203 -177c0 -80 -54 -135 -118 -154c102 -32 145 -106 145 -184c0 -118 -97 -196 -230 -196c-134 0 -231 78 -231 195c0 79 43 153 146 185c-63 18 -119 73 -119 155c0 99 83 176 204 176zM278 35c89 0 176 46 176 149c0 104 -88 160 -176 160
c-90 0 -178 -57 -178 -160s89 -149 178 -149zM278 390c89 0 152 59 152 138c0 78 -63 128 -152 128s-154 -50 -154 -128c0 -79 65 -138 154 -138z" />
    <glyph glyph-name="nine" unicode="9" horiz-adv-x="561" 
d="M47 472c0 126 94 228 234 228c144 0 233 -107 233 -244c0 -228 -245 -433 -394 -486c-9 -3 -20 -7 -26 -7c-9 0 -19 8 -19 20c0 15 13 22 28 30c116 62 258 143 328 298c-47 -53 -120 -62 -160 -62c-135 0 -224 101 -224 223zM101 473c0 -102 67 -180 178 -180
c109 0 181 75 181 179c0 102 -69 183 -181 183c-113 0 -178 -81 -178 -182z" />
    <glyph glyph-name="colon" unicode=":" horiz-adv-x="278" 
d="M77 52c0 34 28 62 62 62s62 -28 62 -62s-28 -62 -62 -62s-62 28 -62 62zM77 390c0 34 28 62 62 62s62 -28 62 -62s-28 -62 -62 -62s-62 28 -62 62z" />
    <glyph glyph-name="semicolon" unicode=";" horiz-adv-x="347" 
d="M241 122l-114 -292c-5 -12 -13 -19 -25 -19c-13 0 -25 9 -25 22c0 3 1 9 4 16l115 295c5 13 15 18 24 18c10 0 25 -6 25 -23c0 -6 -2 -12 -4 -17zM117 390c0 34 28 62 62 62s62 -28 62 -62s-28 -62 -62 -62s-62 28 -62 62z" />
    <glyph glyph-name="less" unicode="&#x3c;" horiz-adv-x="509" 
d="M77 342c0 9 5 14 11 18l299 196c6 4 15 7 22 7c12 0 23 -9 23 -24v-394c0 -15 -11 -24 -23 -24c-7 0 -16 3 -22 7l-299 196c-6 4 -11 9 -11 18z" />
    <glyph glyph-name="equal" unicode="=" horiz-adv-x="474" 
d="M372 400h-270c-18 0 -25 11 -25 23s7 24 25 24h270c18 0 25 -12 25 -24s-7 -23 -25 -23zM372 243h-270c-18 0 -25 11 -25 23s7 24 25 24h270c18 0 25 -12 25 -24s-7 -23 -25 -23z" />
    <glyph glyph-name="greater" unicode="&#x3e;" horiz-adv-x="509" 
d="M432 342c0 -9 -5 -14 -11 -18l-299 -196c-6 -4 -15 -7 -22 -7c-12 0 -23 9 -23 24v394c0 15 11 24 23 24c7 0 16 -3 22 -7l299 -196c6 -4 11 -9 11 -18z" />
    <glyph glyph-name="question" unicode="?" horiz-adv-x="485" 
d="M408 551c0 -119 -118 -185 -153 -312c-4 -16 -10 -26 -26 -26c-13 0 -25 6 -25 29c0 83 151 195 151 311c0 56 -36 111 -128 111c-76 0 -99 -38 -131 -96c-5 -10 -11 -14 -21 -14c-13 0 -25 8 -25 23c0 6 2 14 5 21c25 64 90 112 181 112c115 0 172 -76 172 -159zM167 52
c0 34 28 62 62 62s62 -28 62 -62s-28 -62 -62 -62s-62 28 -62 62z" />
    <glyph glyph-name="at" unicode="@" horiz-adv-x="1011" 
d="M733 -10c-47 0 -89 17 -104 65c-70 -43 -118 -65 -182 -65c-107 0 -144 63 -144 126c0 53 26 120 145 129l177 13v60c0 57 -35 101 -113 101c-62 0 -112 -28 -152 -51c-5 -3 -10 -4 -14 -4c-13 0 -22 10 -22 22c0 11 6 17 16 24c21 14 96 52 177 52
c91 0 158 -48 158 -139v-233c0 -33 16 -62 61 -62c86 0 148 105 148 235c0 188 -129 341 -357 341c-234 0 -399 -160 -399 -397c0 -209 129 -374 379 -374c98 0 169 25 237 56c6 3 10 4 14 4c13 0 19 -8 19 -18c0 -9 -5 -16 -19 -25c-46 -30 -153 -60 -261 -60
c-132 0 -233 45 -302 112c-87 84 -118 197 -118 302c0 254 180 442 448 442c237 0 407 -146 407 -377c0 -150 -71 -279 -199 -279zM625 217l-184 -15c-46 -4 -88 -28 -88 -84c0 -49 31 -86 101 -86c57 0 101 24 171 65v120z" />
    <glyph glyph-name="A" unicode="A" horiz-adv-x="548" 
d="M157 242l-70 -228c-4 -13 -14 -18 -24 -18c-13 0 -26 8 -26 22c0 4 1 8 2 11l209 661c3 9 11 18 26 18c11 0 22 -6 26 -18l209 -661c1 -3 2 -7 2 -11c0 -14 -13 -22 -26 -22c-10 0 -20 5 -24 18l-71 228h-233zM376 289l-99 322h-5l-100 -322h204z" />
    <glyph glyph-name="B" unicode="B" horiz-adv-x="531" 
d="M255 0h-153c-13 0 -25 8 -25 26v648c0 18 12 26 25 26h146c43 0 83 -7 116 -23c57 -28 87 -80 87 -144c0 -68 -33 -142 -125 -171c105 -21 158 -88 158 -173c0 -119 -102 -189 -229 -189zM431 191c0 59 -30 96 -71 117c-34 17 -74 23 -114 23h-119v-283h122
c44 0 88 8 121 28c38 23 61 63 61 115zM400 528c0 70 -41 124 -154 124h-119v-274h90c111 0 183 57 183 150z" />
    <glyph glyph-name="C" unicode="C" horiz-adv-x="594" 
d="M517 622c5 -7 7 -12 7 -18c0 -12 -10 -22 -22 -22c-8 0 -15 4 -23 12c-34 33 -78 73 -153 73c-134 0 -218 -127 -218 -321c0 -187 78 -313 214 -313c50 0 99 17 142 48c10 7 15 12 22 18c8 7 14 9 20 9c13 0 21 -9 21 -20c0 -5 -2 -11 -6 -17c-25 -38 -115 -81 -206 -81
c-165 0 -258 141 -258 354c0 227 105 366 261 366c84 0 165 -40 199 -88z" />
    <glyph glyph-name="D" unicode="D" horiz-adv-x="597" 
d="M232 0h-130c-13 0 -25 8 -25 26v648c0 18 12 26 25 26h130c209 0 318 -127 318 -342s-108 -358 -318 -358zM498 359c0 55 -6 170 -89 238c-39 32 -96 55 -177 55h-105v-604h100c116 0 180 46 218 102c47 69 53 153 53 209z" />
    <glyph glyph-name="E" unicode="E" horiz-adv-x="503" 
d="M391 330h-264v-282h291c18 0 25 -12 25 -24c0 -13 -7 -24 -25 -24h-316c-13 0 -25 8 -25 26v648c0 18 12 26 25 26h316c18 0 25 -11 25 -24c0 -12 -7 -24 -25 -24h-291v-274h264c18 0 25 -11 25 -24c0 -12 -7 -24 -25 -24z" />
    <glyph glyph-name="F" unicode="F" horiz-adv-x="485" 
d="M127 330v-304c0 -18 -12 -26 -25 -26s-25 8 -25 26v648c0 18 12 26 25 26h306c18 0 25 -11 25 -24c0 -12 -7 -24 -25 -24h-281v-274h244c18 0 25 -11 25 -24c0 -12 -7 -24 -25 -24h-244z" />
    <glyph glyph-name="G" unicode="G" horiz-adv-x="613" 
d="M517 622c5 -7 7 -12 7 -18c0 -12 -10 -22 -22 -22c-8 0 -15 4 -23 12c-34 33 -78 73 -153 73c-134 0 -218 -127 -218 -322c0 -185 75 -312 225 -312c71 0 118 28 153 62v196h-168c-18 0 -25 12 -25 24c0 13 7 24 25 24h193c13 0 25 -8 25 -26v-202c0 -20 -8 -32 -15 -41
c-38 -49 -113 -80 -194 -80c-173 0 -270 139 -270 355c0 225 105 365 261 365c85 0 166 -41 199 -88z" />
    <glyph glyph-name="H" unicode="H" horiz-adv-x="649" 
d="M572 678v-656c0 -18 -12 -26 -25 -26s-25 8 -25 26v308h-395v-308c0 -18 -12 -26 -25 -26s-25 8 -25 26v656c0 18 12 26 25 26s25 -8 25 -26v-300h395v300c0 18 12 26 25 26s25 -8 25 -26z" />
    <glyph glyph-name="I" unicode="I" horiz-adv-x="204" 
d="M127 678v-656c0 -18 -12 -26 -25 -26s-25 8 -25 26v656c0 18 12 26 25 26s25 -8 25 -26z" />
    <glyph glyph-name="J" unicode="J" horiz-adv-x="461" 
d="M384 678v-481c0 -64 -13 -111 -39 -145c-32 -41 -82 -62 -151 -62c-34 0 -89 5 -130 33c-9 7 -14 14 -14 24c0 14 11 22 23 22c4 0 10 -1 14 -3c39 -21 62 -33 107 -33c46 0 82 13 106 40c23 26 34 69 34 131v474c0 18 12 26 25 26s25 -8 25 -26z" />
    <glyph glyph-name="K" unicode="K" horiz-adv-x="565" 
d="M127 678v-341l346 358c5 5 12 9 20 9c10 0 21 -7 21 -22c0 -6 -2 -12 -7 -17l-291 -298l315 -330c5 -5 7 -11 7 -17c0 -14 -11 -24 -25 -24c-8 0 -15 3 -20 8l-311 330l-55 -57v-255c0 -18 -12 -26 -25 -26s-25 8 -25 26v656c0 18 12 26 25 26s25 -8 25 -26z" />
    <glyph glyph-name="L" unicode="L" horiz-adv-x="500" 
d="M127 678v-630h311c18 0 25 -12 25 -24c0 -13 -7 -24 -25 -24h-336c-13 0 -25 8 -25 26v652c0 18 12 26 25 26s25 -8 25 -26z" />
    <glyph glyph-name="M" unicode="M" horiz-adv-x="783" 
d="M706 21c0 -14 -10 -25 -25 -25s-25 11 -25 25l-14 568l-225 -448c-3 -7 -12 -18 -27 -18s-22 11 -25 18l-225 448l-13 -568c0 -14 -11 -25 -25 -25c-15 0 -25 11 -25 25l17 647c1 29 13 36 27 36c9 0 22 -3 28 -16l242 -492l242 488c6 12 16 20 29 20s27 -7 28 -36z" />
    <glyph glyph-name="N" unicode="N" horiz-adv-x="626" 
d="M493 15l-366 592v-585c0 -18 -12 -26 -25 -26s-25 8 -25 26v653c0 18 12 29 28 29c10 0 19 -4 27 -17l367 -594v585c0 18 12 26 25 26s25 -8 25 -26v-653c0 -21 -12 -29 -27 -29c-17 0 -24 11 -29 19z" />
    <glyph glyph-name="O" unicode="O" horiz-adv-x="632" 
d="M57 350c0 221 104 360 259 360c154 0 259 -139 259 -360s-105 -360 -259 -360c-155 0 -259 139 -259 360zM523 350c0 190 -75 317 -207 317c-133 0 -208 -127 -208 -317s75 -317 208 -317c132 0 207 127 207 317z" />
    <glyph glyph-name="P" unicode="P" horiz-adv-x="521" 
d="M474 509c0 -46 -15 -95 -48 -133c-35 -40 -92 -67 -173 -67h-126v-287c0 -18 -12 -26 -25 -26s-25 8 -25 26v652c0 18 12 26 25 26h152c61 0 108 -15 142 -38c55 -37 78 -97 78 -153zM422 506c0 80 -50 146 -164 146h-131v-295h131c114 0 164 69 164 149z" />
    <glyph glyph-name="Q" unicode="Q" horiz-adv-x="632" 
d="M557 -40l-84 92c-43 -40 -96 -62 -157 -62c-155 0 -259 139 -259 360s104 360 259 360c154 0 259 -139 259 -360c0 -109 -26 -198 -70 -261l85 -94c8 -9 11 -15 11 -21c0 -11 -10 -23 -24 -23c-6 0 -13 2 -20 9zM523 350c0 190 -75 317 -207 317
c-133 0 -208 -127 -208 -317s75 -317 208 -317c51 0 93 19 126 53l-142 156c-7 7 -11 14 -11 23c0 15 12 25 25 25c7 0 14 -3 19 -9l139 -155c33 55 51 132 51 224z" />
    <glyph glyph-name="R" unicode="R" horiz-adv-x="575" 
d="M127 363h110c131 0 196 64 196 152c0 72 -44 137 -158 137h-148v-289zM282 325c32 -18 66 -63 105 -110l144 -178c4 -5 7 -11 7 -18c0 -12 -10 -23 -24 -23c-9 0 -18 4 -26 14l-148 188c-47 60 -88 107 -135 117h-78v-293c0 -18 -12 -26 -25 -26s-25 8 -25 26v652
c0 18 12 26 25 26h173c110 0 208 -60 208 -181c0 -143 -137 -192 -201 -194z" />
    <glyph glyph-name="S" unicode="S" horiz-adv-x="514" 
d="M477 182c0 -102 -75 -192 -225 -192c-74 0 -147 22 -178 43c-12 8 -17 16 -17 25c0 13 9 23 23 23c6 0 12 -2 19 -5c52 -25 92 -43 154 -43c131 0 175 82 175 146c0 186 -365 136 -365 357c0 111 91 174 203 174c67 0 135 -23 169 -45c11 -7 17 -14 17 -24
s-7 -20 -21 -20c-6 0 -13 2 -21 6c-42 21 -83 41 -143 41c-103 0 -157 -58 -157 -128c0 -182 367 -132 367 -358z" />
    <glyph glyph-name="T" unicode="T" horiz-adv-x="556" 
d="M52 700h452c18 0 25 -11 25 -24c0 -12 -7 -24 -25 -24h-201v-630v-4c0 -1 -1 -2 -1 -3c-1 -4 -2 -7 -4 -10c-1 -2 -2 -3 -4 -4c-5 -3 -10 -5 -16 -5h-4c-2 0 -3 1 -5 1c-1 1 -3 2 -4 2c-1 1 -1 1 -2 1c-6 4 -10 11 -10 22v630h-201c-18 0 -25 12 -25 24c0 13 7 24 25 24z
" />
    <glyph glyph-name="U" unicode="U" horiz-adv-x="616" 
d="M308 33c115 0 191 67 191 211v434c0 18 12 26 25 26s25 -8 25 -26v-428c0 -229 -151 -260 -241 -260s-241 31 -241 260v428c0 18 12 26 25 26s25 -8 25 -26v-434c0 -144 76 -211 191 -211z" />
    <glyph glyph-name="V" unicode="V" horiz-adv-x="568" 
d="M287 93l184 597c4 13 14 18 24 18c13 0 26 -8 26 -22c0 -4 -1 -8 -2 -11l-209 -661c-4 -12 -15 -18 -26 -18c-15 0 -23 9 -26 18l-209 661c-1 3 -2 7 -2 11c0 14 13 22 26 22c10 0 20 -5 24 -18l185 -597h5z" />
    <glyph glyph-name="W" unicode="W" horiz-adv-x="990" 
d="M709 93l184 597c4 13 14 18 24 18c13 0 26 -8 26 -22c0 -4 -1 -8 -2 -11l-209 -661c-4 -12 -15 -18 -26 -18c-15 0 -23 9 -26 18l-185 605l-185 -605c-4 -12 -15 -18 -27 -18c-14 0 -22 9 -25 18l-209 661c-1 3 -2 7 -2 11c0 14 13 22 26 22c10 0 20 -5 24 -18l185 -597
h5l184 597c3 10 10 18 24 18c12 0 20 -6 24 -18l185 -597h5z" />
    <glyph glyph-name="X" unicode="X" horiz-adv-x="623" 
d="M122 689l189 -300l190 300c7 11 15 15 23 15c11 0 22 -7 22 -20c0 -5 -2 -12 -6 -18l-201 -318l200 -313c4 -6 7 -14 7 -20c0 -12 -11 -21 -24 -21c-8 0 -16 4 -23 14l-188 299l-187 -299c-7 -10 -15 -14 -23 -14c-12 0 -24 9 -24 21c0 6 3 14 7 20l200 313l-201 318
c-4 6 -6 13 -6 18c0 13 11 20 22 20c8 0 16 -4 23 -15z" />
    <glyph glyph-name="Y" unicode="Y" horiz-adv-x="572" 
d="M287 317l191 372c5 10 13 15 24 15c15 0 23 -11 23 -23c0 -6 -2 -12 -4 -16l-210 -398v-245c0 -18 -12 -26 -25 -26s-25 8 -25 26v245l-210 398c-2 4 -4 10 -4 16c0 12 8 23 23 23c11 0 19 -5 24 -15z" />
    <glyph glyph-name="Z" unicode="Z" horiz-adv-x="581" 
d="M513 645l-392 -597h378c18 0 25 -12 25 -24c0 -13 -7 -24 -25 -24h-412c-17 0 -30 10 -30 26c0 8 3 17 12 31l392 595h-369c-18 0 -25 12 -25 24c0 13 7 24 25 24h402c15 0 30 -7 30 -25c0 -7 -2 -16 -11 -30z" />
    <glyph glyph-name="bracketleft" unicode="[" horiz-adv-x="363" 
d="M127 722v-804h171c18 0 25 -12 25 -24c0 -13 -7 -24 -25 -24h-196c-13 0 -25 8 -25 26v848c0 18 12 26 25 26h196c18 0 25 -11 25 -24c0 -12 -7 -24 -25 -24h-171z" />
    <glyph glyph-name="backslash" unicode="\" horiz-adv-x="516" 
d="M391 14l-311 771c-2 5 -3 10 -3 14c0 13 12 21 25 21c8 0 17 -3 23 -18l311 -770c2 -4 3 -10 3 -14c0 -12 -10 -22 -24 -22c-9 0 -19 5 -24 18z" />
    <glyph glyph-name="bracketright" unicode="]" horiz-adv-x="363" 
d="M236 -82v804h-171c-18 0 -25 12 -25 24c0 13 7 24 25 24h196c13 0 25 -8 25 -26v-848c0 -18 -12 -26 -25 -26h-196c-18 0 -25 11 -25 24c0 12 7 24 25 24h171z" />
    <glyph glyph-name="asciicircum" unicode="^" horiz-adv-x="562" 
d="M435 243l-154 383l-153 -382c-5 -13 -15 -18 -25 -18c-12 0 -26 8 -26 22c0 4 1 8 2 11l176 431c4 9 11 18 26 18c11 0 21 -6 26 -18l176 -431c1 -3 2 -7 2 -11c0 -13 -12 -22 -26 -22c-10 0 -19 4 -24 17z" />
    <glyph glyph-name="underscore" unicode="_" horiz-adv-x="260" 
d="M238 -133h-216c-18 0 -25 11 -25 24c0 12 7 24 25 24h216c18 0 25 -12 25 -24c0 -13 -7 -24 -25 -24z" />
    <glyph glyph-name="grave" unicode="`" horiz-adv-x="446" 
d="M331 521l-241 138c-9 5 -13 12 -13 20c0 12 9 25 24 25c4 0 9 -1 14 -4l241 -138c9 -6 13 -13 13 -21c0 -13 -10 -24 -24 -24c-4 0 -9 1 -14 4z" />
    <glyph glyph-name="a" unicode="a" horiz-adv-x="490" 
d="M419 75l5 -30c3 -17 4 -25 4 -29c0 -14 -12 -20 -25 -20s-21 6 -24 25l-6 34c-70 -43 -118 -65 -182 -65c-107 0 -144 63 -144 126c0 53 26 120 145 129l177 13v60c0 57 -34 101 -112 101c-62 0 -113 -28 -153 -51c-5 -3 -10 -4 -14 -4c-13 0 -22 10 -22 22
c0 11 6 17 16 24c21 14 98 52 179 52c91 0 156 -48 156 -139v-248zM369 217l-184 -15c-46 -4 -88 -28 -88 -84c0 -49 31 -86 101 -86c57 0 101 24 171 65v120z" />
    <glyph glyph-name="b" unicode="b" horiz-adv-x="542" 
d="M127 678v-272c60 44 119 56 165 56c123 0 203 -87 203 -230c0 -161 -101 -242 -220 -242c-50 0 -110 14 -148 41v-9c0 -18 -12 -26 -25 -26s-25 8 -25 26v656c0 18 12 26 25 26s25 -8 25 -26zM445 232c0 122 -64 184 -163 184c-44 0 -96 -12 -155 -59v-277
c6 -5 66 -48 143 -48c92 0 175 62 175 200z" />
    <glyph glyph-name="c" unicode="c" horiz-adv-x="481" 
d="M261 -10c-136 0 -214 92 -214 230c0 157 101 242 208 242c55 0 142 -22 166 -49c6 -7 10 -15 10 -21c0 -8 -8 -21 -20 -21c-5 0 -10 2 -17 6c-33 20 -72 42 -127 42c-89 0 -170 -56 -170 -193c0 -122 65 -194 166 -194c64 0 104 29 135 52c8 6 14 10 22 10
c13 0 19 -12 19 -19c0 -17 -31 -41 -67 -59c-34 -17 -69 -26 -111 -26z" />
    <glyph glyph-name="d" unicode="d" horiz-adv-x="543" 
d="M425 52c-69 -50 -129 -62 -175 -62c-123 0 -203 87 -203 230c0 161 102 242 219 242c51 0 111 -15 149 -42v258c0 18 12 26 25 26s25 -8 25 -26v-583l11 -50c4 -18 5 -25 5 -29c0 -9 -7 -20 -24 -20c-12 0 -20 6 -23 19zM97 221c0 -121 64 -185 159 -185
c50 0 100 18 159 59v277c-6 5 -66 48 -143 48c-92 0 -175 -62 -175 -199z" />
    <glyph glyph-name="e" unicode="e" horiz-adv-x="499" 
d="M259 -10c-130 0 -212 89 -212 231c0 155 97 241 214 241c134 0 191 -114 191 -194c0 -24 -5 -35 -24 -35h-331c0 -136 68 -201 163 -201c64 0 104 29 135 52c8 6 14 10 22 10c13 0 19 -12 19 -19c0 -17 -31 -41 -67 -59c-32 -16 -67 -26 -110 -26zM102 276h300
c-8 101 -71 144 -144 144c-66 0 -138 -35 -156 -144z" />
    <glyph glyph-name="f" unicode="f" horiz-adv-x="324" 
d="M288 405h-122v-383c0 -18 -12 -26 -25 -26s-25 8 -25 26v383h-84c-18 0 -25 11 -25 23c0 11 7 23 25 23h84v110c0 97 60 166 160 166c27 0 91 -5 91 -35c0 -10 -7 -24 -21 -24c-4 0 -8 1 -11 2c-20 7 -38 12 -60 12c-73 0 -109 -55 -109 -131v-100h122
c18 0 25 -12 25 -23c0 -12 -7 -23 -25 -23z" />
    <glyph glyph-name="g" unicode="g" horiz-adv-x="532" 
d="M405 419v11c0 18 12 26 25 26s25 -8 25 -26v-453c0 -152 -104 -212 -215 -212c-78 0 -154 29 -180 55c-6 6 -9 11 -9 19c0 14 11 22 22 22c9 0 19 -6 25 -10c50 -31 92 -44 142 -44c102 0 165 53 165 163v75c-59 -40 -106 -50 -151 -50c-129 0 -207 82 -207 224
c0 162 102 243 219 243c54 0 102 -17 139 -43zM97 220c0 -121 64 -181 161 -181c47 0 88 14 147 55v278c-6 5 -56 48 -133 48c-92 0 -175 -62 -175 -200z" />
    <glyph glyph-name="h" unicode="h" 
d="M127 678v-301l73 41c55 31 95 44 138 44c86 0 131 -53 131 -161v-279c0 -18 -12 -26 -25 -26s-25 8 -25 26v267c0 92 -26 126 -88 126c-45 0 -83 -18 -136 -48l-68 -39v-306c0 -18 -12 -26 -25 -26s-25 8 -25 26v656c0 18 12 26 25 26s25 -8 25 -26z" />
    <glyph glyph-name="i" unicode="i" horiz-adv-x="237" 
d="M144 430v-408c0 -18 -12 -26 -25 -26s-25 8 -25 26v408c0 18 12 26 25 26s25 -8 25 -26zM77 593c0 23 19 41 42 41s41 -18 41 -41s-18 -42 -41 -42s-42 19 -42 42z" />
    <glyph glyph-name="j" unicode="j" horiz-adv-x="237" 
d="M94 -44v474c0 18 12 26 25 26s25 -8 25 -26v-478c0 -68 -42 -138 -81 -165c-11 -8 -21 -11 -27 -11c-11 0 -21 9 -21 21c0 8 5 15 12 21c26 24 67 62 67 138zM77 593c0 23 19 41 42 41s41 -18 41 -41s-18 -42 -41 -42s-42 19 -42 42z" />
    <glyph glyph-name="k" unicode="k" horiz-adv-x="514" 
d="M127 678v-446l315 215c6 4 12 5 16 5c13 0 23 -10 23 -22c0 -8 -4 -16 -12 -21l-196 -131l208 -242c4 -6 6 -11 6 -16c0 -14 -13 -24 -24 -24c-7 0 -16 4 -22 11l-207 246l-107 -73v-158c0 -18 -12 -26 -25 -26s-25 8 -25 26v656c0 18 12 26 25 26s25 -8 25 -26z" />
    <glyph glyph-name="l" unicode="l" horiz-adv-x="204" 
d="M127 678v-656c0 -18 -12 -26 -25 -26s-25 8 -25 26v656c0 18 12 26 25 26s25 -8 25 -26z" />
    <glyph glyph-name="m" unicode="m" horiz-adv-x="862" 
d="M127 335v-313c0 -18 -12 -26 -25 -26s-25 8 -25 26v408c0 18 12 26 25 26s25 -8 25 -26v-46l60 34c55 31 95 44 136 44c59 0 106 -27 123 -84l70 40c55 31 95 44 138 44c86 0 131 -53 131 -161v-279c0 -18 -12 -26 -25 -26s-25 8 -25 26v267c0 94 -27 126 -89 126
c-45 0 -81 -17 -135 -48l-57 -33c1 -11 2 -23 2 -35v-277c0 -18 -12 -26 -25 -26s-25 8 -25 26v267c0 88 -24 126 -88 126c-41 0 -79 -15 -136 -48z" />
    <glyph glyph-name="n" unicode="n" 
d="M127 430v-53l73 41c55 31 95 44 138 44c86 0 131 -53 131 -161v-279c0 -18 -12 -26 -25 -26s-25 8 -25 26v267c0 92 -26 126 -88 126c-45 0 -83 -18 -136 -48l-68 -39v-306c0 -18 -12 -26 -25 -26s-25 8 -25 26v408c0 18 12 26 25 26s25 -8 25 -26z" />
    <glyph glyph-name="o" unicode="o" horiz-adv-x="522" 
d="M47 226c0 134 87 236 214 236s214 -102 214 -236s-87 -236 -214 -236s-214 102 -214 236zM425 226c0 107 -63 194 -164 194s-164 -87 -164 -194s63 -194 164 -194s164 87 164 194z" />
    <glyph glyph-name="p" unicode="p" horiz-adv-x="542" 
d="M127 430v-24c60 44 119 56 165 56c123 0 203 -87 203 -230c0 -161 -101 -242 -220 -242c-50 0 -110 14 -148 41v-234c0 -18 -12 -26 -25 -26s-25 8 -25 26v633c0 18 12 26 25 26s25 -8 25 -26zM445 232c0 122 -64 184 -163 184c-44 0 -96 -12 -155 -59v-277
c6 -5 66 -48 143 -48c92 0 175 62 175 200z" />
    <glyph glyph-name="q" unicode="q" horiz-adv-x="542" 
d="M250 -10c-123 0 -203 88 -203 230c0 161 102 242 219 242c51 0 111 -15 149 -42v14c0 18 12 26 25 26s25 -8 25 -26v-637c0 -18 -12 -26 -25 -26s-25 8 -25 26v249c-67 -46 -123 -56 -165 -56zM97 221c0 -121 64 -185 159 -185c50 0 100 18 159 59v277
c-6 5 -66 48 -143 48c-92 0 -175 -62 -175 -199z" />
    <glyph glyph-name="r" unicode="r" horiz-adv-x="366" 
d="M324 456c22 0 30 -9 30 -24c0 -9 -3 -21 -27 -23c-48 -4 -79 -12 -132 -42l-68 -39v-306c0 -18 -12 -26 -25 -26s-25 8 -25 26v408c0 18 12 26 25 26s25 -8 25 -26v-55l73 42c58 33 106 39 124 39z" />
    <glyph glyph-name="s" unicode="s" horiz-adv-x="455" 
d="M114 342c0 -29 15 -47 40 -61c81 -45 244 -31 244 -158c0 -82 -69 -133 -183 -133c-60 0 -108 14 -136 33c-16 11 -20 19 -20 28c0 14 9 22 22 22c8 0 14 -3 23 -9c35 -22 64 -36 114 -36c78 0 133 34 133 91c0 91 -138 79 -221 123c-32 17 -62 45 -62 98
c0 89 85 122 156 122c35 0 103 -8 141 -29c16 -9 22 -19 22 -27c0 -11 -9 -19 -20 -19c-7 0 -14 3 -20 6c-34 17 -66 30 -115 30c-86 0 -118 -39 -118 -81z" />
    <glyph glyph-name="t" unicode="t" horiz-adv-x="423" 
d="M134 451v167c0 18 12 26 25 26s25 -8 25 -26v-167h162c18 0 25 -12 25 -23c0 -12 -7 -23 -25 -23h-162v-276c0 -53 22 -96 86 -96c46 0 66 22 79 31c7 5 11 7 17 7c12 0 22 -10 22 -21c0 -6 -3 -12 -8 -17c-27 -29 -76 -43 -118 -43c-78 0 -128 47 -128 134v281h-94
c-18 0 -25 11 -25 23c0 11 7 23 25 23h94z" />
    <glyph glyph-name="u" unicode="u" 
d="M419 22v53l-73 -41c-55 -31 -95 -44 -138 -44c-86 0 -131 53 -131 161v279c0 18 12 26 25 26s25 -8 25 -26v-267c0 -92 26 -126 88 -126c45 0 83 18 136 48l68 39v306c0 18 12 26 25 26s25 -8 25 -26v-408c0 -18 -12 -26 -25 -26s-25 8 -25 26z" />
    <glyph glyph-name="v" unicode="v" horiz-adv-x="469" 
d="M259 12c-5 -11 -13 -17 -24 -17s-20 6 -25 17l-189 405c-2 4 -4 11 -4 16c0 11 9 23 25 23c10 0 19 -5 24 -17l170 -371l169 371c5 12 14 17 24 17c16 0 23 -11 23 -22c0 -5 -2 -12 -4 -16z" />
    <glyph glyph-name="w" unicode="w" horiz-adv-x="777" 
d="M388 382l-149 -370c-5 -11 -13 -17 -24 -17s-20 6 -25 17l-169 405c-2 4 -4 11 -4 16c0 11 9 23 25 23c10 0 19 -5 24 -17l150 -373l149 373c5 12 14 17 25 17c10 0 19 -5 24 -17l150 -373l149 373c5 12 14 17 24 17c16 0 23 -11 23 -22c0 -5 -2 -12 -4 -16l-169 -406
c-5 -11 -13 -17 -24 -17s-20 6 -25 17z" />
    <glyph glyph-name="x" unicode="x" horiz-adv-x="484" 
d="M274 225l160 -189c5 -6 8 -14 8 -20c0 -12 -9 -23 -23 -23c-10 0 -17 5 -28 18l-149 179l-149 -179c-11 -13 -18 -18 -28 -18c-14 0 -23 11 -23 23c0 6 3 14 8 20l160 189l-160 188c-5 6 -8 14 -8 20c0 12 9 23 23 23c10 0 17 -5 28 -18l149 -179l149 179
c11 13 18 18 28 18c14 0 23 -11 23 -23c0 -6 -3 -14 -8 -20z" />
    <glyph glyph-name="y" unicode="y" horiz-adv-x="459" 
d="M201 5l-180 412c-2 4 -4 11 -4 16c0 11 9 23 25 23c10 0 19 -5 24 -17l162 -380l166 379c5 12 14 17 24 17c16 0 24 -11 24 -22c0 -5 -2 -12 -4 -16l-200 -449c-36 -81 -75 -133 -119 -163c-31 -21 -67 -33 -99 -33c-24 0 -33 7 -33 22c0 12 6 23 25 24c33 2 49 3 83 28
c28 21 64 62 86 113z" />
    <glyph glyph-name="z" unicode="z" horiz-adv-x="461" 
d="M113 46h281c18 0 25 -11 25 -23c0 -11 -7 -23 -25 -23h-323c-19 0 -28 11 -28 24c0 7 3 15 8 21l289 360h-264c-18 0 -25 11 -25 23c0 11 7 23 25 23h306c19 0 28 -11 28 -24c0 -7 -3 -15 -8 -21z" />
    <glyph glyph-name="braceleft" unicode="{" horiz-adv-x="355" 
d="M314 801c3 -20 -16 -25 -33 -28c-35 -7 -92 -32 -92 -132c0 -67 26 -126 26 -201c0 -42 -8 -91 -69 -128v-6c59 -34 69 -91 69 -136c0 -72 -26 -118 -26 -185c0 -98 56 -124 92 -131c20 -4 36 -8 33 -29c-2 -14 -12 -21 -31 -21c-50 0 -147 46 -147 178
c0 71 28 112 28 186c0 100 -51 110 -99 117c-19 3 -25 12 -25 23c0 15 10 24 25 25c34 2 99 8 99 114c0 69 -28 127 -28 198c0 131 97 177 146 177c19 0 30 -7 32 -21z" />
    <glyph glyph-name="bar" unicode="|" horiz-adv-x="284" 
d="M167 828v-1006c0 -18 -12 -26 -25 -26s-25 8 -25 26v1006c0 18 12 26 25 26s25 -8 25 -26z" />
    <glyph glyph-name="braceright" unicode="}" horiz-adv-x="355" 
d="M315 309c0 -12 -6 -21 -24 -24c-48 -7 -100 -16 -100 -114c0 -73 29 -118 29 -190c0 -131 -98 -177 -147 -177c-19 0 -30 7 -32 21c-3 22 19 27 33 29c29 5 93 27 93 131c0 68 -27 116 -27 189c0 44 10 98 70 132v6c-62 37 -70 89 -70 131c0 75 27 130 27 198
c0 106 -65 127 -93 132c-24 4 -35 12 -33 28c2 14 13 21 32 21c49 0 147 -46 147 -177c0 -72 -29 -124 -29 -199c0 -94 46 -105 100 -113c18 -3 24 -12 24 -24z" />
    <glyph glyph-name="asciitilde" unicode="~" horiz-adv-x="507" 
d="M332 303c-64 0 -115 57 -161 57c-29 0 -43 -22 -53 -41c-6 -11 -11 -16 -21 -16c-13 0 -20 9 -20 20c0 23 34 80 98 80s112 -57 161 -57c30 0 42 21 53 41c6 11 11 16 21 16c13 0 20 -9 20 -20c0 -23 -34 -80 -98 -80z" />
    <glyph glyph-name="dagger" unicode="&#x2020;" horiz-adv-x="594" 
d="M322 462h170c18 0 25 -12 25 -24c0 -13 -7 -24 -25 -24h-170v-392c0 -18 -12 -26 -25 -26s-25 8 -25 26v392h-170c-18 0 -25 11 -25 24c0 12 7 24 25 24h170v216c0 18 12 26 25 26s25 -8 25 -26v-216z" />
    <glyph glyph-name="degree" unicode="&#xb0;" horiz-adv-x="452" 
d="M375 551c0 -85 -64 -153 -149 -153c-86 0 -149 68 -149 153s64 153 149 153c84 0 149 -68 149 -153zM325 551c0 61 -38 110 -100 110c-61 0 -99 -48 -99 -110c0 -63 38 -111 99 -111c62 0 100 49 100 111z" />
    <glyph glyph-name="cent" unicode="&#xa2;" 
d="M371 603l-27 -145c35 -5 88 -31 106 -46c5 -4 11 -10 11 -19c0 -10 -8 -22 -20 -22c-5 0 -10 2 -17 6c-23 14 -50 30 -87 38l-68 -382c8 -1 16 -1 25 -1c62 0 103 29 134 52c8 6 14 10 22 10c13 0 19 -12 19 -19c0 -17 -31 -41 -67 -59c-32 -16 -65 -26 -115 -26
c-16 0 -16 1 -25 1l-28 -160c-3 -13 -12 -18 -22 -18c-11 0 -22 6 -22 18c0 3 1 11 4 26l25 142c-88 26 -142 108 -142 222c0 156 99 241 213 241h11l29 164c2 13 11 18 21 18c12 0 23 -6 23 -21c0 -4 -1 -10 -3 -20zM127 227c0 -93 38 -158 100 -183l66 375
c-84 0 -166 -56 -166 -192z" />
    <glyph glyph-name="sterling" unicode="&#xa3;" horiz-adv-x="600" 
d="M239 314c0 -71 -15 -206 -72 -266c21 10 44 13 66 13c57 0 114 -20 172 -20c35 0 51 7 83 23c6 3 11 4 15 4c14 0 20 -13 20 -22c0 -30 -72 -51 -121 -51c-51 0 -127 22 -182 22c-56 0 -74 -23 -97 -23c-15 0 -22 10 -22 20s6 18 11 24c30 37 74 125 74 276h-84
c-18 0 -25 11 -25 24c0 12 7 24 25 24h84v133c0 158 104 211 192 211c24 0 63 -4 88 -14c13 -5 21 -11 21 -22c0 -10 -7 -24 -22 -24s-39 14 -83 14c-75 0 -143 -41 -143 -168v-130h169c18 0 25 -12 25 -24c0 -13 -7 -24 -25 -24h-169z" />
    <glyph glyph-name="section" unicode="&#xa7;" horiz-adv-x="571" 
d="M115 357c8 11 14 15 23 15c11 0 21 -8 21 -21c0 -19 -21 -33 -21 -67c0 -137 331 -74 331 -255c0 -95 -91 -153 -217 -153c-106 0 -175 41 -175 68c0 9 7 22 23 22c6 0 12 -2 22 -8c35 -21 68 -38 133 -38c97 0 163 38 163 103c0 146 -328 75 -328 256c0 33 11 59 25 78z
M466 214c-6 -7 -15 -13 -23 -13c-11 0 -21 9 -21 21c0 4 1 9 4 14c13 22 19 33 19 52c0 147 -352 60 -352 260c0 103 94 153 205 153c100 0 186 -40 186 -68c0 -8 -7 -21 -22 -21c-7 0 -14 3 -23 8c-36 20 -73 39 -139 39c-90 0 -158 -35 -158 -106c0 -163 352 -68 352 -252
c0 -32 -11 -67 -28 -87z" />
    <glyph glyph-name="bullet" unicode="&#x2022;" horiz-adv-x="398" 
d="M321 368c0 -69 -54 -125 -122 -125s-122 56 -122 125s54 123 122 123s122 -54 122 -123z" />
    <glyph glyph-name="paragraph" unicode="&#xb6;" horiz-adv-x="699" 
d="M445 0h-40c-210 0 -328 136 -328 351s119 349 328 349h40c13 0 25 -8 25 -26v-648c0 -18 -12 -26 -25 -26zM622 678v-656c0 -18 -12 -26 -25 -26s-25 8 -25 26v656c0 18 12 26 25 26s25 -8 25 -26z" />
    <glyph glyph-name="germandbls" unicode="&#xdf;" horiz-adv-x="609" 
d="M146 489c0 145 86 221 199 221c107 0 169 -69 169 -146c0 -90 -83 -161 -83 -205c0 -17 13 -34 34 -53c47 -42 107 -81 107 -168c0 -85 -58 -148 -169 -148c-79 0 -119 32 -119 50c0 7 6 23 20 23c20 0 40 -31 104 -31c76 0 116 43 116 101c0 66 -51 100 -97 141
c-23 21 -45 44 -45 75c0 61 84 133 84 212c0 53 -37 106 -122 106c-105 0 -148 -80 -148 -189v-456c0 -18 -12 -26 -25 -26s-25 8 -25 26v383h-94c-18 0 -25 11 -25 23c0 11 7 23 25 23h94v38z" />
    <glyph glyph-name="registered" unicode="&#xae;" horiz-adv-x="890" 
d="M813 348c0 -233 -160 -398 -367 -398c-208 0 -369 166 -369 399s161 399 369 399c207 0 367 -166 367 -400zM760 348c0 235 -160 356 -314 356c-155 0 -315 -121 -315 -355s160 -356 315 -356c154 0 314 121 314 355zM628 110c-9 -7 -24 -8 -35 5l-103 128
c-30 37 -60 71 -90 77h-45v-191c0 -13 -10 -22 -23 -22s-22 10 -22 22v430c0 18 9 31 30 31h118c108 0 142 -75 142 -131c0 -76 -63 -124 -130 -132c20 -15 39 -38 64 -67l97 -119c10 -11 5 -25 -3 -31zM458 549h-103v-188h76c67 0 122 36 122 97c0 36 -19 91 -95 91z" />
    <glyph glyph-name="copyright" unicode="&#xa9;" horiz-adv-x="890" 
d="M813 348c0 -233 -160 -398 -367 -398c-208 0 -369 166 -369 399s161 399 369 399c207 0 367 -166 367 -400zM760 348c0 235 -160 356 -314 356c-155 0 -315 -121 -315 -355s160 -356 315 -356c154 0 314 121 314 355zM589 505c-8 -8 -20 -12 -35 2c-28 27 -54 49 -102 49
c-94 0 -149 -83 -149 -211c0 -124 52 -204 138 -204c34 0 79 13 101 37c6 5 12 12 17 15c18 12 48 -5 28 -35s-82 -61 -148 -61c-119 0 -184 100 -184 245c0 156 75 257 193 257c71 0 126 -37 142 -62c6 -9 10 -23 -1 -32z" />
    <glyph glyph-name="trademark" unicode="&#x2122;" horiz-adv-x="1044" 
d="M263 261c-16 0 -22 10 -22 20v380h-141c-18 0 -23 10 -23 20c0 11 6 19 23 19h327c14 0 22 -9 22 -19c0 -11 -9 -20 -22 -20h-141v-380c0 -10 -7 -20 -23 -20zM918 623l-146 -274c-3 -6 -8 -15 -22 -15s-19 9 -22 15l-147 274l-5 -346c0 -12 -10 -20 -23 -20
s-20 8 -20 20l10 400c0 11 5 26 25 26c15 0 20 -8 24 -15l160 -299l157 299c4 8 11 15 24 15c19 0 24 -14 24 -26l10 -400c0 -12 -8 -20 -21 -20s-23 8 -23 20z" />
    <glyph glyph-name="acute" unicode="&#xb4;" horiz-adv-x="446" 
d="M356 659l-241 -138c-5 -3 -10 -4 -14 -4c-14 0 -24 11 -24 24c0 8 4 15 13 21l241 138c5 3 10 4 14 4c15 0 24 -13 24 -25c0 -8 -4 -15 -13 -20z" />
    <glyph glyph-name="dieresis" unicode="&#xa8;" horiz-adv-x="415" 
d="M118 634c23 0 42 -19 42 -42s-19 -41 -42 -41s-42 18 -42 41s19 42 42 42zM298 634c23 0 42 -19 42 -42s-19 -41 -42 -41s-42 18 -42 41s19 42 42 42z" />
    <glyph glyph-name="notequal" unicode="&#x2260;" horiz-adv-x="474" 
d="M372 243h-156l-98 -243c-4 -11 -13 -16 -22 -16c-12 0 -22 8 -22 20c0 4 1 8 3 13l91 226h-66c-18 0 -25 11 -25 23s7 24 25 24h85l44 110h-129c-18 0 -25 11 -25 23s7 24 25 24h148l104 254c4 11 12 17 22 17c9 0 23 -5 23 -19c0 -3 -1 -8 -3 -13l-97 -239h73
c18 0 25 -12 25 -24s-7 -23 -25 -23h-92l-45 -110h137c18 0 25 -12 25 -24s-7 -23 -25 -23z" />
    <glyph glyph-name="AE" unicode="&#xc6;" horiz-adv-x="828" 
d="M427 0c-13 0 -25 8 -25 26v216h-203l-109 -229c-5 -11 -14 -17 -24 -17c-12 0 -29 8 -29 22c0 5 2 12 4 16l323 652c4 7 12 14 23 14h356c18 0 25 -11 25 -24c0 -12 -7 -24 -25 -24h-291v-274h264c18 0 25 -11 25 -24c0 -12 -7 -24 -25 -24h-264v-282h291
c18 0 25 -12 25 -24c0 -13 -7 -24 -25 -24h-316zM402 663l-180 -374h180v374z" />
    <glyph glyph-name="Oslash" unicode="&#xd8;" horiz-adv-x="632" 
d="M57 350c0 221 104 360 258 360c39 0 74 -9 106 -25l40 99c5 12 13 17 22 17c10 0 24 -7 24 -21c0 -3 -1 -7 -3 -12l-44 -109c71 -59 115 -167 115 -309c0 -221 -105 -360 -259 -360c-42 0 -81 10 -114 29l-36 -89c-5 -13 -14 -18 -23 -18c-13 0 -23 10 -23 21
c0 4 1 9 3 13l41 101c-67 61 -107 166 -107 303zM523 350c0 117 -29 210 -81 264l-223 -553c27 -18 60 -28 97 -28c132 0 207 127 207 317zM108 350c0 -112 26 -202 74 -257l222 550c-25 15 -54 24 -89 24c-131 0 -207 -126 -207 -317z" />
    <glyph glyph-name="infinity" unicode="&#x221e;" horiz-adv-x="862" 
d="M250 552c94 0 143 -70 181 -146c38 76 87 146 181 146c111 0 173 -96 173 -197s-63 -191 -172 -191c-100 0 -146 76 -181 149c-37 -73 -83 -149 -183 -149c-109 0 -172 90 -172 191s62 197 173 197zM249 203c83 0 120 75 158 156c-38 80 -76 154 -157 154
c-84 0 -128 -80 -128 -158s45 -152 127 -152zM613 203c82 0 127 74 127 152s-44 158 -128 158c-81 0 -119 -74 -157 -154c38 -81 75 -156 158 -156z" />
    <glyph glyph-name="plusminus" unicode="&#xb1;" horiz-adv-x="594" 
d="M322 369h170c18 0 25 -12 25 -24c0 -13 -7 -24 -25 -24h-170v-169c0 -18 -12 -26 -25 -26s-25 8 -25 26v169h-170c-18 0 -25 11 -25 24c0 12 7 24 25 24h170v179c0 18 12 26 25 26s25 -8 25 -26v-179zM102 48h390c18 0 25 -12 25 -24c0 -13 -7 -24 -25 -24h-390
c-18 0 -25 11 -25 24c0 12 7 24 25 24z" />
    <glyph glyph-name="lessequal" unicode="&#x2264;" horiz-adv-x="449" 
d="M102 48h245c18 0 25 -12 25 -24c0 -13 -7 -24 -25 -24h-245c-18 0 -25 11 -25 24c0 12 7 24 25 24zM336 561l-186 -180l186 -180c7 -7 10 -13 10 -20c0 -13 -9 -25 -24 -25c-6 0 -13 2 -19 8l-204 200c-4 4 -9 9 -9 17s4 12 9 17l204 200c6 6 13 8 19 8
c15 0 24 -12 24 -25c0 -7 -3 -13 -10 -20z" />
    <glyph glyph-name="greaterequal" unicode="&#x2265;" horiz-adv-x="449" 
d="M299 381l-186 180c-7 7 -10 13 -10 20c0 13 9 25 24 25c6 0 13 -2 19 -8l204 -200c5 -5 9 -9 9 -17s-5 -13 -9 -17l-204 -200c-6 -6 -13 -8 -19 -8c-15 0 -24 12 -24 25c0 7 3 13 10 20zM102 48h245c18 0 25 -12 25 -24c0 -13 -7 -24 -25 -24h-245c-18 0 -25 11 -25 24
c0 12 7 24 25 24z" />
    <glyph glyph-name="yen" unicode="&#xa5;" horiz-adv-x="634" 
d="M532 193h-191v-171c0 -18 -12 -26 -25 -26s-25 8 -25 26v171h-189c-18 0 -25 11 -25 23s7 24 25 24h189v27l-44 83h-145c-18 0 -25 11 -25 23s7 24 25 24h120l-141 268c-2 4 -4 10 -4 16c0 12 8 23 23 23c11 0 19 -5 24 -15l193 -372l191 372c5 10 13 15 24 15
c15 0 23 -11 23 -23c0 -6 -2 -12 -4 -16l-141 -268h122c18 0 25 -12 25 -24s-7 -23 -25 -23h-147l-44 -83v-27h191c18 0 25 -12 25 -24s-7 -23 -25 -23z" />
    <glyph glyph-name="mu" unicode="&#xb5;" 
d="M127 14v-238c0 -18 -12 -26 -25 -26s-25 8 -25 26v654c0 18 12 26 25 26s25 -8 25 -26v-267c0 -92 26 -126 88 -126c45 0 83 18 136 48l68 39v306c0 18 12 26 25 26s25 -8 25 -26v-408c0 -18 -12 -26 -25 -26s-25 8 -25 26v53l-73 -41c-55 -31 -97 -44 -135 -44
c-31 0 -63 9 -84 24z" />
    <glyph glyph-name="partialdiff" unicode="&#x2202;" horiz-adv-x="540" 
d="M57 208c0 127 88 221 209 221c65 0 119 -27 159 -83c-39 147 -142 256 -242 332c-11 8 -19 15 -19 27s8 19 21 19c5 0 10 -1 20 -7c75 -42 278 -251 278 -478c0 -127 -63 -249 -212 -249c-132 0 -214 95 -214 218zM432 209c0 100 -63 181 -163 181s-162 -81 -162 -181
c0 -99 62 -180 162 -180s163 81 163 180z" />
    <glyph glyph-name="summation" unicode="&#x2211;" horiz-adv-x="538" 
d="M307 350l-221 294c-6 7 -9 16 -9 24c0 17 12 32 34 32h325c18 0 25 -11 25 -24c0 -12 -7 -24 -25 -24h-297l201 -266c11 -15 16 -23 16 -36s-4 -21 -15 -36l-202 -266h297c18 0 25 -12 25 -24c0 -13 -7 -24 -25 -24h-325c-22 0 -34 15 -34 32c0 8 3 17 9 24z" />
    <glyph glyph-name="product" unicode="&#x220f;" horiz-adv-x="649" 
d="M572 674v-652c0 -18 -12 -26 -25 -26s-25 8 -25 26v630h-395v-630c0 -18 -12 -26 -25 -26s-25 8 -25 26v652c0 16 10 26 22 26h448c13 0 25 -8 25 -26z" />
    <glyph glyph-name="pi" unicode="&#x3c0;" horiz-adv-x="776" 
d="M102 451h546c18 0 25 -12 25 -23c0 -12 -7 -23 -25 -23h-122v-268c0 -55 15 -96 75 -96c32 0 46 12 61 25c6 5 12 7 17 7c11 0 20 -9 20 -21c0 -6 -3 -12 -8 -17c-19 -21 -52 -37 -97 -37c-79 0 -118 51 -118 138v269h-196l-108 -387c-4 -14 -12 -19 -24 -19
s-28 6 -28 23c0 2 0 5 1 8l107 375h-126c-18 0 -25 11 -25 23c0 11 7 23 25 23z" />
    <glyph glyph-name="integral" unicode="&#x222b;" horiz-adv-x="394" 
d="M226 551v-636c0 -97 -60 -166 -160 -166c-27 0 -91 5 -91 35c0 10 7 24 21 24c4 0 8 -1 11 -2c20 -7 38 -12 60 -12c73 0 109 53 109 128v639c0 97 60 166 160 166c27 0 91 -5 91 -35c0 -10 -7 -24 -21 -24c-4 0 -8 1 -11 2c-20 7 -38 12 -60 12
c-73 0 -109 -55 -109 -131z" />
    <glyph glyph-name="ordfeminine" unicode="&#xaa;" horiz-adv-x="350" 
d="M298 455l2 -15c1 -10 3 -20 3 -25c0 -9 -6 -18 -20 -18c-10 0 -18 4 -20 21l-2 17c-37 -27 -75 -41 -116 -41c-73 0 -98 44 -98 87c0 32 14 82 95 88l114 8v35c0 34 -20 60 -68 60c-36 0 -64 -14 -90 -28c-11 -6 -15 -7 -19 -7c-12 0 -19 8 -19 19c0 8 4 14 13 20
c13 9 66 34 120 34c63 0 105 -33 105 -95v-160zM256 544l-115 -10c-27 -2 -51 -17 -51 -52c0 -28 16 -51 61 -51c35 0 65 14 105 37v76z" />
    <glyph glyph-name="ordmasculine" unicode="&#xba;" horiz-adv-x="382" 
d="M47 552c0 90 58 158 144 158s144 -68 144 -158s-58 -158 -144 -158s-144 68 -144 158zM293 552c0 67 -39 121 -102 121s-102 -54 -102 -121s39 -121 102 -121s102 54 102 121z" />
    <glyph glyph-name="Omega" unicode="&#x2126;" horiz-adv-x="844" 
d="M767 22c0 -13 -10 -24 -25 -24h-247c-28 0 -35 35 -10 45c94 40 230 128 230 321c0 185 -126 312 -293 312s-292 -127 -292 -315c0 -205 150 -279 231 -318c23 -11 16 -45 -10 -45h-250c-13 0 -24 11 -24 24s12 24 24 24h149c-91 71 -170 166 -170 320
c0 209 147 358 343 358c195 0 341 -149 341 -359c0 -150 -75 -246 -169 -319h147c15 0 25 -12 25 -24z" />
    <glyph glyph-name="ae" unicode="&#xe6;" horiz-adv-x="807" 
d="M574 32c64 0 104 29 135 52c8 6 14 10 22 10c13 0 19 -12 19 -19c0 -17 -31 -41 -67 -59c-32 -16 -66 -26 -112 -26c-78 0 -130 28 -168 81c-75 -63 -147 -81 -207 -81c-112 0 -149 63 -149 126c0 47 21 122 145 129l167 9v64c0 57 -34 101 -112 101
c-62 0 -113 -28 -153 -51c-5 -3 -10 -4 -14 -4c-13 0 -22 10 -22 22c0 11 6 17 16 24c21 14 96 52 176 52c73 0 129 -31 148 -90c39 62 101 90 171 90c137 0 191 -109 191 -187c0 -28 -7 -41 -38 -43l-314 -17c7 -124 75 -183 166 -183zM571 420c-70 0 -154 -43 -163 -165
l306 18c-8 101 -71 147 -143 147zM200 32c62 0 129 27 184 76c-13 30 -22 66 -23 104l-176 -10c-49 -3 -88 -30 -88 -85c0 -48 30 -85 103 -85z" />
    <glyph glyph-name="oslash" unicode="&#xf8;" horiz-adv-x="522" 
d="M421 554l-50 -123c65 -40 104 -115 104 -205c0 -134 -87 -236 -213 -236c-25 0 -45 4 -65 10l-54 -134c-4 -12 -13 -17 -22 -17c-11 0 -21 8 -21 20c0 4 1 9 3 13l54 134c-68 39 -110 117 -110 210c0 134 87 236 214 236c26 0 50 -4 72 -12l48 119c4 12 11 16 20 16
c11 0 22 -6 22 -19c0 -3 -1 -7 -2 -12zM97 226c0 -72 28 -135 77 -168l143 352c-17 6 -36 10 -57 10c-100 0 -163 -87 -163 -194zM425 226c0 68 -26 128 -71 163l-141 -350c15 -5 31 -7 47 -7c102 0 165 87 165 194z" />
    <glyph glyph-name="questiondown" unicode="&#xbf;" horiz-adv-x="485" 
d="M67 -109c0 119 118 185 153 312c4 16 10 26 26 26c13 0 25 -6 25 -29c0 -83 -151 -195 -151 -311c0 -56 36 -111 128 -111c76 0 99 38 131 96c5 10 11 14 21 14c13 0 25 -8 25 -23c0 -6 -2 -14 -5 -21c-25 -64 -90 -112 -181 -112c-115 0 -172 76 -172 159zM308 390
c0 -34 -28 -62 -62 -62s-62 28 -62 62s28 62 62 62s62 -28 62 -62z" />
    <glyph glyph-name="exclamdown" unicode="&#xa1;" horiz-adv-x="278" 
d="M138 217c14 0 24 -10 25 -25c19 -371 20 -411 20 -417c0 -27 -22 -43 -45 -43s-45 16 -45 43c0 6 1 46 20 417c1 15 11 25 25 25zM77 390c0 34 28 62 62 62s62 -28 62 -62s-28 -62 -62 -62s-62 28 -62 62z" />
    <glyph glyph-name="logicalnot" unicode="&#xac;" horiz-adv-x="552" 
d="M102 369h348c13 0 25 -8 25 -26v-178c0 -18 -12 -26 -25 -26s-25 8 -25 26v156h-323c-18 0 -25 11 -25 24c0 12 7 24 25 24z" />
    <glyph glyph-name="radical" unicode="&#x221a;" horiz-adv-x="682" 
d="M289 -88c-5 -11 -13 -17 -24 -17s-20 6 -25 17l-159 405c-2 4 -4 11 -4 16c0 11 9 23 25 23c10 0 19 -5 24 -17l138 -367l292 699c5 12 14 17 24 17c16 0 25 -12 25 -23c0 -5 -2 -12 -4 -16z" />
    <glyph glyph-name="florin" unicode="&#x192;" horiz-adv-x="394" 
d="M226 275v-360c0 -97 -60 -166 -160 -166c-27 0 -91 5 -91 35c0 10 7 24 21 24c4 0 8 -1 11 -2c20 -7 38 -12 60 -12c73 0 109 53 109 128v353h-114c-18 0 -25 11 -25 23c0 11 7 23 25 23h114v240c0 97 60 166 160 166c27 0 91 -5 91 -35c0 -10 -7 -24 -21 -24
c-4 0 -8 1 -11 2c-20 7 -38 12 -60 12c-73 0 -109 -55 -109 -131v-230h132c18 0 25 -12 25 -23c0 -12 -7 -23 -25 -23h-132z" />
    <glyph glyph-name="approxequal" unicode="&#x2248;" horiz-adv-x="507" 
d="M332 373c-64 0 -115 57 -161 57c-29 0 -43 -22 -53 -41c-6 -11 -11 -16 -21 -16c-13 0 -20 9 -20 20c0 23 34 80 98 80s112 -57 161 -57c30 0 42 21 53 41c6 11 11 16 21 16c13 0 20 -9 20 -20c0 -23 -34 -80 -98 -80zM332 220c-64 0 -115 57 -161 57
c-29 0 -43 -22 -53 -41c-6 -11 -11 -16 -21 -16c-13 0 -20 9 -20 20c0 23 34 80 98 80s112 -57 161 -57c30 0 42 21 53 41c6 11 11 16 21 16c13 0 20 -9 20 -20c0 -23 -34 -80 -98 -80z" />
    <glyph glyph-name="Delta" unicode="&#x2206;" horiz-adv-x="640" 
d="M561 0h-482c-23 0 -32 15 -32 29c0 6 2 14 5 22l241 638c4 12 14 19 27 19c17 0 24 -10 27 -19l242 -640c2 -6 4 -12 4 -19c0 -16 -9 -30 -32 -30zM317 607l-211 -559h427l-211 559h-5z" />
    <glyph glyph-name="guillemotleft" unicode="&#xab;" horiz-adv-x="617" 
d="M332 415l-193 -186l193 -187c8 -8 11 -14 11 -21c0 -14 -10 -26 -25 -26c-6 0 -14 2 -20 8l-212 208c-4 4 -9 9 -9 18c0 8 4 12 9 17l212 208c6 6 14 8 20 8c15 0 25 -12 25 -26c0 -7 -3 -13 -11 -21zM530 415l-193 -186l193 -187c7 -8 10 -14 10 -21
c0 -13 -9 -26 -25 -26c-6 0 -13 2 -20 8l-211 208c-5 4 -10 9 -10 18c0 8 4 12 10 17l211 208c7 6 14 8 20 8c16 0 25 -13 25 -26c0 -7 -3 -13 -10 -21z" />
    <glyph glyph-name="guillemotright" unicode="&#xbb;" horiz-adv-x="617" 
d="M280 229l-193 186c-7 8 -10 14 -10 21c0 13 9 26 25 26c6 0 13 -2 20 -8l211 -208c6 -5 10 -9 10 -17c0 -9 -5 -14 -10 -18l-211 -208c-7 -6 -14 -8 -20 -8c-16 0 -25 13 -25 26c0 7 3 13 10 21zM478 229l-193 186c-8 8 -11 14 -11 21c0 14 10 26 25 26c6 0 14 -2 20 -8
l212 -208c5 -5 9 -9 9 -17c0 -9 -5 -14 -9 -18l-212 -208c-6 -6 -14 -8 -20 -8c-15 0 -25 12 -25 26c0 7 3 13 11 21z" />
    <glyph glyph-name="endash" unicode="&#x2013;" horiz-adv-x="552" 
d="M450 281h-348c-18 0 -25 11 -25 24c0 12 7 24 25 24h348c18 0 25 -12 25 -24c0 -13 -7 -24 -25 -24z" />
    <glyph glyph-name="emdash" unicode="&#x2014;" horiz-adv-x="808" 
d="M707 281h-606c-17 0 -24 11 -24 24c0 12 7 24 24 24h606c17 0 24 -12 24 -24c0 -13 -7 -24 -24 -24z" />
    <glyph glyph-name="quotedblleft" unicode="&#x201c;" horiz-adv-x="512" 
d="M241 670l-114 -292c-5 -12 -13 -19 -25 -19c-13 0 -25 9 -25 22c0 3 1 9 4 16l115 295c5 13 15 18 24 18c10 0 25 -6 25 -23c0 -6 -2 -12 -4 -17zM431 670l-114 -292c-5 -12 -13 -19 -25 -19c-13 0 -25 9 -25 22c0 3 1 9 4 16l115 295c5 13 15 18 24 18
c10 0 25 -6 25 -23c0 -6 -2 -12 -4 -17z" />
    <glyph glyph-name="quotedblright" unicode="&#x201d;" horiz-adv-x="512" 
d="M241 670l-114 -292c-5 -12 -13 -19 -25 -19c-13 0 -25 9 -25 22c0 3 1 9 4 16l115 295c5 13 15 18 24 18c10 0 25 -6 25 -23c0 -6 -2 -12 -4 -17zM431 670l-114 -292c-5 -12 -13 -19 -25 -19c-13 0 -25 9 -25 22c0 3 1 9 4 16l115 295c5 13 15 18 24 18
c10 0 25 -6 25 -23c0 -6 -2 -12 -4 -17z" />
    <glyph glyph-name="quoteleft" unicode="&#x2018;" horiz-adv-x="322" 
d="M241 670l-114 -292c-5 -12 -13 -19 -25 -19c-13 0 -25 9 -25 22c0 3 1 9 4 16l115 295c5 13 15 18 24 18c10 0 25 -6 25 -23c0 -6 -2 -12 -4 -17z" />
    <glyph glyph-name="quoteright" unicode="&#x2019;" horiz-adv-x="322" 
d="M241 670l-114 -292c-5 -12 -13 -19 -25 -19c-13 0 -25 9 -25 22c0 3 1 9 4 16l115 295c5 13 15 18 24 18c10 0 25 -6 25 -23c0 -6 -2 -12 -4 -17z" />
    <glyph glyph-name="divide" unicode="&#xf7;" horiz-adv-x="560" 
d="M214 173c0 34 28 62 62 62s62 -28 62 -62s-28 -62 -62 -62s-62 28 -62 62zM214 511c0 34 28 62 62 62s62 -28 62 -62s-28 -62 -62 -62s-62 28 -62 62zM454 321h-348c-18 0 -25 11 -25 24c0 12 7 24 25 24h348c18 0 25 -12 25 -24c0 -13 -7 -24 -25 -24z" />
    <glyph glyph-name="lozenge" unicode="&#x25ca;" horiz-adv-x="562" 
d="M281 739l-153 -387l153 -387l153 387zM281 -112c-11 0 -21 6 -26 18l-174 428c-2 5 -4 12 -4 18s2 13 4 18l174 428c5 12 15 18 26 18s21 -6 26 -18l174 -428c2 -5 4 -12 4 -18s-2 -13 -4 -18l-174 -428c-5 -12 -15 -18 -26 -18z" />
    <glyph glyph-name="fraction" unicode="&#x2044;" horiz-adv-x="739" 
d="M686 673l-598 -672c-7 -7 -13 -11 -21 -11c-13 0 -20 11 -20 19c0 5 2 12 7 17l598 670c7 8 13 12 20 12s20 -5 20 -19c0 -4 -1 -11 -6 -16z" />
    <glyph glyph-name="Euro" unicode="&#x20ac;" horiz-adv-x="668" 
d="M462 243h-267c14 -130 90 -210 203 -210c53 0 101 17 144 48c10 7 15 12 22 18c8 7 14 9 20 9c12 0 21 -8 21 -20c0 -4 -1 -9 -6 -17c-26 -41 -120 -81 -209 -81c-139 0 -232 98 -247 253h-71c-18 0 -25 11 -25 23s7 24 25 24h65c-1 19 -2 38 -2 59c0 17 0 34 1 51h-64
c-18 0 -25 11 -25 23s7 24 25 24h70c25 159 124 257 255 257c84 0 165 -41 198 -88c5 -7 7 -12 7 -18c0 -12 -10 -22 -22 -22c-8 0 -15 4 -23 12c-36 35 -79 73 -154 73c-109 0 -184 -80 -209 -214h268c18 0 25 -12 25 -24s-7 -23 -25 -23h-274c-1 -17 -2 -34 -2 -53
s1 -39 2 -57h274c18 0 25 -12 25 -24s-7 -23 -25 -23z" />
    <glyph glyph-name="guilsinglleft" unicode="&#x2039;" horiz-adv-x="420" 
d="M333 415l-193 -186l193 -187c7 -8 10 -14 10 -21c0 -13 -9 -26 -25 -26c-6 0 -13 2 -20 8l-211 208c-5 4 -10 9 -10 18c0 8 4 12 10 17l211 208c7 6 14 8 20 8c16 0 25 -13 25 -26c0 -7 -3 -13 -10 -21z" />
    <glyph glyph-name="guilsinglright" unicode="&#x203a;" horiz-adv-x="420" 
d="M280 229l-193 186c-7 8 -10 14 -10 21c0 13 9 26 25 26c6 0 13 -2 20 -8l211 -208c6 -5 10 -9 10 -17c0 -9 -5 -14 -10 -18l-211 -208c-7 -6 -14 -8 -20 -8c-16 0 -25 13 -25 26c0 7 3 13 10 21z" />
    <glyph glyph-name="daggerdbl" unicode="&#x2021;" horiz-adv-x="594" 
d="M492 238h-170v-216c0 -18 -12 -26 -25 -26s-25 8 -25 26v216h-170c-18 0 -25 11 -25 24c0 12 7 24 25 24h170v128h-170c-18 0 -25 11 -25 24c0 12 7 24 25 24h170v216c0 18 12 26 25 26s25 -8 25 -26v-216h170c18 0 25 -12 25 -24c0 -13 -7 -24 -25 -24h-170v-128h170
c18 0 25 -12 25 -24c0 -13 -7 -24 -25 -24z" />
    <glyph glyph-name="periodcentered" unicode="&#xb7;" horiz-adv-x="277" 
d="M200 357c0 -34 -28 -62 -61 -62s-62 28 -62 63c0 34 29 61 62 61s61 -28 61 -62z" />
    <glyph glyph-name="quotesinglbase" unicode="&#x201a;" horiz-adv-x="322" 
d="M241 122l-114 -292c-5 -12 -13 -19 -25 -19c-13 0 -25 9 -25 22c0 3 1 9 4 16l115 295c5 13 15 18 24 18c10 0 25 -6 25 -23c0 -6 -2 -12 -4 -17z" />
    <glyph glyph-name="quotedblbase" unicode="&#x201e;" horiz-adv-x="452" 
d="M211 122l-114 -292c-5 -12 -13 -19 -25 -19c-13 0 -25 9 -25 22c0 3 1 9 4 16l115 295c5 13 15 18 24 18c10 0 25 -6 25 -23c0 -6 -2 -12 -4 -17zM401 122l-114 -292c-5 -12 -13 -19 -25 -19c-13 0 -25 9 -25 22c0 3 1 9 4 16l115 295c5 13 15 18 24 18
c10 0 25 -6 25 -23c0 -6 -2 -12 -4 -17z" />
    <glyph glyph-name="perthousand" unicode="&#x2030;" horiz-adv-x="1119" 
d="M335 546c0 -87 -54 -153 -144 -153c-91 0 -144 67 -144 153c0 88 54 154 144 154c89 0 144 -65 144 -154zM288 546c0 74 -42 114 -97 114c-56 0 -97 -41 -97 -114c0 -71 40 -113 97 -113c56 0 97 41 97 113zM599 669l-431 -662c-5 -8 -11 -13 -20 -13c-12 0 -23 8 -23 19
c0 5 2 10 5 16l431 662c5 8 11 13 20 13c12 0 23 -8 23 -19c0 -5 -2 -10 -5 -16zM697 149c0 -87 -54 -153 -144 -153c-91 0 -144 67 -144 153c0 88 54 154 144 154c89 0 144 -65 144 -154zM650 149c0 74 -42 114 -97 114c-56 0 -97 -41 -97 -114c0 -71 40 -113 97 -113
c56 0 97 41 97 113zM1072 149c0 -87 -54 -153 -144 -153c-91 0 -144 67 -144 153c0 88 54 154 144 154c89 0 144 -65 144 -154zM1025 149c0 74 -42 114 -97 114c-56 0 -97 -41 -97 -114c0 -71 40 -113 97 -113c56 0 97 41 97 113z" />
    <glyph glyph-name="OE" unicode="&#x152;" horiz-adv-x="966" 
d="M847 330h-274v-282h291c18 0 25 -12 25 -24c0 -13 -7 -24 -25 -24h-316c-13 0 -25 8 -25 26v104c-42 -89 -114 -140 -207 -140c-155 0 -259 139 -259 360s104 360 259 360c93 0 165 -51 207 -141v105c0 18 12 26 25 26h316c18 0 25 -11 25 -24c0 -12 -7 -24 -25 -24h-291
v-274h274c18 0 25 -11 25 -24c0 -12 -7 -24 -25 -24zM523 350c0 190 -75 317 -207 317c-133 0 -208 -127 -208 -317s75 -317 208 -317c132 0 207 127 207 317z" />
    <glyph glyph-name="oe" unicode="&#x153;" horiz-adv-x="877" 
d="M480 276h300c-8 101 -71 144 -144 144c-66 0 -138 -35 -156 -144zM425 226c0 107 -63 194 -164 194s-164 -87 -164 -194s63 -194 164 -194s164 87 164 194zM639 32c64 0 104 29 135 52c8 6 14 10 22 10c13 0 19 -12 19 -19c0 -17 -31 -41 -67 -59s-71 -26 -112 -26
c-92 0 -154 41 -189 118c-34 -71 -100 -118 -186 -118c-127 0 -214 102 -214 236s87 236 214 236c87 0 155 -49 188 -122c38 82 108 122 189 122c135 0 192 -113 192 -194c0 -24 -5 -35 -24 -35h-331c0 -136 69 -201 164 -201z" />
    <glyph glyph-name="circumflex" unicode="&#x2c6;" horiz-adv-x="524" 
d="M89 562l155 124c6 5 12 8 19 8c6 0 11 -3 16 -7l156 -125c8 -7 12 -12 12 -21c0 -12 -9 -23 -23 -23c-4 0 -10 1 -15 5l-147 119l-147 -119c-5 -4 -11 -5 -15 -5c-14 0 -23 11 -23 23c0 9 4 14 12 21z" />
    <glyph glyph-name="tilde" unicode="&#x2dc;" horiz-adv-x="507" 
d="M332 553c-64 0 -115 56 -162 56c-30 0 -43 -23 -52 -40c-6 -11 -11 -16 -21 -16c-13 0 -20 9 -20 20c0 23 34 80 98 80s112 -56 161 -56c30 0 42 20 53 40c6 11 11 16 21 16c13 0 20 -9 20 -20c0 -23 -34 -80 -98 -80z" />
    <glyph glyph-name="macron" unicode="&#xaf;" horiz-adv-x="420" 
d="M318 564h-216c-18 0 -25 11 -25 24c0 12 7 24 25 24h216c18 0 25 -12 25 -24c0 -13 -7 -24 -25 -24z" />
    <glyph glyph-name="breve" unicode="&#x2d8;" horiz-adv-x="412" 
d="M289 655c3 15 8 23 23 23c13 0 23 -6 23 -31c0 -58 -53 -121 -129 -121c-79 0 -129 67 -129 122c0 24 10 30 23 30c17 0 21 -11 23 -23c8 -46 17 -86 83 -86c65 0 74 39 83 86z" />
    <glyph glyph-name="dotaccent" unicode="&#x2d9;" horiz-adv-x="237" 
d="M77 583c0 23 19 41 42 41s41 -18 41 -41s-18 -42 -41 -42s-42 19 -42 42z" />
    <glyph glyph-name="ring" unicode="&#x2da;" horiz-adv-x="412" 
d="M335 645c0 -72 -56 -129 -129 -129c-74 0 -129 57 -129 129s55 129 129 129c73 0 129 -57 129 -129zM289 645c0 49 -33 89 -84 89c-50 0 -82 -40 -82 -89c0 -50 32 -90 82 -90c51 0 84 40 84 90z" />
    <glyph glyph-name="cedilla" unicode="&#xb8;" horiz-adv-x="370" 
d="M148 4h40l-23 -87s13 2 27 2c39 0 101 -16 101 -83c0 -63 -57 -95 -122 -95c-40 0 -68 12 -80 19c-10 6 -14 11 -14 19c0 12 9 19 17 19c14 0 31 -20 79 -20c45 0 78 17 78 55c0 37 -30 50 -57 50c-11 0 -34 -2 -42 -2c-13 0 -27 5 -27 22c0 8 3 21 7 37z" />
    <glyph glyph-name="hungarumlaut" unicode="&#x2dd;" horiz-adv-x="686" 
d="M356 659l-241 -138c-5 -3 -10 -4 -14 -4c-14 0 -24 11 -24 24c0 8 4 15 13 21l241 138c5 3 10 4 14 4c15 0 24 -13 24 -25c0 -8 -4 -15 -13 -20zM596 659l-241 -138c-5 -3 -10 -4 -14 -4c-14 0 -24 11 -24 24c0 8 4 15 13 21l241 138c5 3 10 4 14 4c15 0 24 -13 24 -25
c0 -8 -4 -15 -13 -20z" />
    <glyph glyph-name="ogonek" unicode="&#x2db;" horiz-adv-x="347" 
d="M249 12v-11c-76 -16 -124 -49 -124 -104c0 -31 15 -60 72 -60c31 0 48 9 58 9c9 0 15 -7 15 -17c0 -7 -3 -16 -20 -22c-12 -4 -31 -9 -58 -9c-77 0 -115 44 -115 97c0 66 59 112 142 133z" />
    <glyph glyph-name="caron" unicode="&#x2c7;" horiz-adv-x="524" 
d="M244 526l-155 124c-8 7 -12 12 -12 21c0 12 9 23 23 23c4 0 10 -1 15 -5l147 -119l147 119c5 4 11 5 15 5c14 0 23 -11 23 -23c0 -9 -4 -14 -12 -21l-156 -125c-5 -4 -10 -7 -16 -7c-7 0 -13 3 -19 8z" />
    <glyph glyph-name="brokenbar" unicode="&#xa6;" horiz-adv-x="284" 
d="M167 272v-450c0 -18 -12 -26 -25 -26s-25 8 -25 26v450c0 18 12 26 25 26s25 -8 25 -26zM167 828v-392c0 -18 -12 -26 -25 -26s-25 8 -25 26v392c0 18 12 26 25 26s25 -8 25 -26z" />
    <glyph glyph-name="minus" unicode="&#x2212;" horiz-adv-x="474" 
d="M372 321h-270c-18 0 -25 11 -25 24c0 12 7 24 25 24h270c18 0 25 -12 25 -24c0 -13 -7 -24 -25 -24z" />
    <glyph glyph-name="multiply" unicode="&#xd7;" horiz-adv-x="640" 
d="M521 110l-201 203l-201 -203c-6 -6 -12 -8 -18 -8c-12 0 -24 11 -24 24c0 6 2 12 8 18l202 201l-202 201c-6 6 -8 12 -8 18c0 13 12 24 24 24c6 0 12 -2 18 -8l201 -203l201 203c6 6 12 8 18 8c12 0 24 -11 24 -24c0 -6 -2 -12 -8 -18l-202 -201l202 -201
c6 -6 8 -12 8 -18c0 -13 -12 -24 -24 -24c-6 0 -12 2 -18 8z" />
    <glyph glyph-name="Thorn" unicode="&#xde;" horiz-adv-x="551" 
d="M77 22v656c0 18 12 26 25 26s25 -8 25 -26v-125h157c61 0 108 -15 142 -38c55 -37 78 -97 78 -153c0 -46 -15 -95 -48 -133c-35 -40 -92 -67 -173 -67h-156v-140c0 -18 -12 -26 -25 -26s-25 8 -25 26zM127 505v-295h161c114 0 164 69 164 149s-50 146 -164 146h-161z" />
    <glyph glyph-name="thorn" unicode="&#xfe;" horiz-adv-x="542" 
d="M127 678v-272c60 44 119 56 165 56c123 0 203 -87 203 -230c0 -161 -101 -242 -220 -242c-50 0 -110 14 -148 41v-259c0 -18 -12 -26 -25 -26s-25 8 -25 26v906c0 18 12 26 25 26s25 -8 25 -26zM445 232c0 122 -64 184 -163 184c-44 0 -96 -12 -155 -59v-277
c6 -5 66 -48 143 -48c92 0 175 62 175 200z" />
    <glyph glyph-name="Eth" unicode="&#xd0;" horiz-adv-x="647" 
d="M272 0h-130c-13 0 -25 8 -25 26v304h-65c-18 0 -25 11 -25 24c0 12 7 24 25 24h65v296c0 18 12 26 25 26h130c209 0 318 -127 318 -342s-108 -358 -318 -358zM338 330h-171v-282h100c116 0 180 46 218 102c47 69 53 153 53 209c0 55 -6 170 -89 238
c-39 32 -96 55 -177 55h-105v-274h171c18 0 25 -12 25 -24c0 -13 -7 -24 -25 -24z" />
    <glyph glyph-name="eth" unicode="&#xf0;" horiz-adv-x="540" 
d="M189 556l87 40c-31 32 -63 59 -93 82c-11 8 -19 15 -19 27c0 14 11 19 21 19c6 0 12 -2 20 -7c17 -11 78 -62 113 -101l113 52c4 2 8 3 12 3c16 0 21 -12 21 -20c0 -9 -6 -16 -15 -20l-103 -48c80 -98 137 -228 137 -345c0 -121 -60 -248 -212 -248
c-132 0 -214 95 -214 218c0 127 88 221 209 221c65 0 119 -27 159 -83c-22 84 -67 157 -120 218l-97 -45c-4 -2 -6 -3 -11 -3c-15 0 -21 11 -21 21c0 8 4 14 13 19zM432 209c0 100 -63 181 -163 181s-162 -81 -162 -181c0 -99 62 -180 162 -180s163 81 163 180z" />
    <glyph glyph-name="Lslash" unicode="&#x141;" horiz-adv-x="500" 
d="M349 372l-288 -135c-4 -2 -7 -3 -12 -3c-14 0 -22 10 -22 22c0 8 4 15 14 20l289 134c5 2 8 4 14 4c12 0 21 -9 21 -21c0 -10 -6 -17 -16 -21zM127 678v-630h311c18 0 25 -12 25 -24c0 -13 -7 -24 -25 -24h-336c-13 0 -25 8 -25 26v652c0 18 12 26 25 26s25 -8 25 -26z
" />
    <glyph glyph-name="lslash" unicode="&#x142;" horiz-adv-x="372" 
d="M208 678v-320l112 52c5 2 8 4 14 4c12 0 21 -9 21 -21c0 -10 -6 -17 -16 -21l-131 -62v-288c0 -18 -12 -26 -25 -26s-25 8 -25 26v265l-107 -50c-4 -2 -7 -3 -12 -3c-14 0 -22 10 -22 22c0 8 4 15 14 20l127 59v343c0 18 12 26 25 26s25 -8 25 -26z" />
    <glyph glyph-name="threesuperior" unicode="&#xb3;" horiz-adv-x="441" 
d="M104 693h237c8 0 23 -7 23 -23c0 -6 -2 -14 -7 -19l-152 -149h18c68 0 143 -36 143 -126c0 -105 -101 -154 -198 -154c-20 0 -51 2 -71 9c-13 5 -20 12 -20 23c0 13 11 19 22 19c14 0 30 -9 70 -9c79 0 150 34 150 111c0 66 -53 90 -106 90c-19 0 -48 -3 -56 -3
c-13 0 -20 8 -20 19c0 5 1 10 13 22l149 147h-195c-16 0 -22 10 -22 21c0 12 6 22 22 22z" />
    <glyph glyph-name="twosuperior" unicode="&#xb2;" horiz-adv-x="440" 
d="M135 271h206c16 0 22 -9 22 -19s-6 -21 -22 -22h-240c-16 0 -24 10 -24 22c0 6 2 13 6 18c85 96 51 52 150 168c32 37 74 88 74 144c0 49 -33 80 -89 80c-39 0 -68 -15 -88 -26c-6 -3 -15 -9 -23 -9c-9 0 -18 6 -18 19c0 7 3 11 7 15c15 14 70 39 127 39
c84 0 129 -53 129 -117c0 -62 -43 -115 -83 -162c-48 -56 -134 -150 -134 -150z" />
    <glyph glyph-name="onesuperior" unicode="&#xb9;" horiz-adv-x="365" 
d="M214 250v386l-99 -80c-5 -5 -11 -7 -17 -7c-13 0 -21 10 -21 21c0 7 3 13 8 17l131 107c6 5 13 7 19 7c13 0 23 -8 23 -25v-426c0 -15 -10 -23 -21 -23s-23 8 -23 23z" />
    <glyph glyph-name="threequarters" unicode="&#xbe;" horiz-adv-x="1010" 
d="M104 693h237c8 0 23 -7 23 -23c0 -6 -2 -14 -7 -19l-152 -149h18c68 0 143 -36 143 -126c0 -105 -101 -154 -198 -154c-20 0 -51 2 -71 9c-13 5 -20 12 -20 23c0 13 11 19 22 19c14 0 30 -9 70 -9c79 0 150 34 150 111c0 66 -53 90 -106 90c-19 0 -48 -3 -56 -3
c-13 0 -20 8 -20 19c0 5 1 10 13 22l149 147h-195c-16 0 -22 10 -22 21c0 12 6 22 22 22zM596 180l215 276c7 9 14 13 23 13c12 0 22 -8 22 -23v-270h55c16 0 22 -9 22 -20s-6 -19 -22 -19h-55v-113c0 -15 -9 -23 -21 -23s-21 8 -21 23v113h-200c-15 0 -25 8 -25 23
c0 6 2 13 7 20zM814 176v223l-174 -223h174zM841 673l-598 -672c-7 -7 -13 -11 -21 -11c-13 0 -20 11 -20 19c0 5 2 12 7 17l598 670c7 8 13 12 20 12s20 -5 20 -19c0 -4 -1 -11 -6 -16z" />
    <glyph glyph-name="onequarter" unicode="&#xbc;" horiz-adv-x="1010" 
d="M596 180l215 276c7 9 14 13 23 13c12 0 22 -8 22 -23v-270h55c16 0 22 -9 22 -20s-6 -19 -22 -19h-55v-113c0 -15 -9 -23 -21 -23s-21 8 -21 23v113h-200c-15 0 -25 8 -25 23c0 6 2 13 7 20zM814 176v223l-174 -223h174zM841 673l-598 -672c-7 -7 -13 -11 -21 -11
c-13 0 -20 11 -20 19c0 5 2 12 7 17l598 670c7 8 13 12 20 12s20 -5 20 -19c0 -4 -1 -11 -6 -16zM214 250v386l-99 -80c-5 -5 -11 -7 -17 -7c-13 0 -21 10 -21 21c0 7 3 13 8 17l131 107c6 5 13 7 19 7c13 0 23 -8 23 -25v-426c0 -15 -10 -23 -21 -23s-23 8 -23 23z" />
    <glyph glyph-name="onehalf" unicode="&#xbd;" horiz-adv-x="1064" 
d="M841 673l-598 -672c-7 -7 -13 -11 -21 -11c-13 0 -20 11 -20 19c0 5 2 12 7 17l598 670c7 8 13 12 20 12s20 -5 20 -19c0 -4 -1 -11 -6 -16zM214 250v386l-99 -80c-5 -5 -11 -7 -17 -7c-13 0 -21 10 -21 21c0 7 3 13 8 17l131 107c6 5 13 7 19 7c13 0 23 -8 23 -25v-426
c0 -15 -10 -23 -21 -23s-23 8 -23 23zM759 42h206c16 0 22 -9 22 -19s-6 -21 -22 -22h-240c-16 0 -24 10 -24 22c0 6 2 13 6 18c85 96 51 52 150 168c32 37 74 88 74 144c0 49 -33 80 -89 80c-39 0 -68 -15 -88 -26c-6 -3 -15 -9 -23 -9c-9 0 -18 6 -18 19c0 7 3 11 7 15
c15 14 70 39 127 39c84 0 129 -53 129 -117c0 -62 -43 -115 -83 -162c-48 -56 -134 -150 -134 -150z" />
    <glyph glyph-name="dotlessi" unicode="&#x131;" horiz-adv-x="228" 
d="M138 430v-408c0 -18 -12 -26 -25 -26s-25 8 -25 26v408c0 18 12 26 25 26s25 -8 25 -26z" />
    <glyph glyph-name="agrave" unicode="&#xe0;" horiz-adv-x="490" 
d="M419 75l5 -30c3 -17 4 -25 4 -29c0 -14 -12 -20 -25 -20s-21 6 -24 25l-6 34c-70 -43 -118 -65 -182 -65c-107 0 -144 63 -144 126c0 53 26 120 145 129l177 13v60c0 57 -34 101 -112 101c-62 0 -113 -28 -153 -51c-5 -3 -10 -4 -14 -4c-13 0 -22 10 -22 22
c0 11 6 17 16 24c21 14 98 52 179 52c91 0 156 -48 156 -139v-248zM369 217l-184 -15c-46 -4 -88 -28 -88 -84c0 -49 31 -86 101 -86c57 0 101 24 171 65v120zM381 521l-241 138c-9 5 -13 12 -13 20c0 12 9 25 24 25c4 0 9 -1 14 -4l241 -138c9 -6 13 -13 13 -21
c0 -13 -10 -24 -24 -24c-4 0 -9 1 -14 4z" />
    <glyph glyph-name="acircumflex" unicode="&#xe2;" horiz-adv-x="490" 
d="M419 75l5 -30c3 -17 4 -25 4 -29c0 -14 -12 -20 -25 -20s-21 6 -24 25l-6 34c-70 -43 -118 -65 -182 -65c-107 0 -144 63 -144 126c0 53 26 120 145 129l177 13v60c0 57 -34 101 -112 101c-62 0 -113 -28 -153 -51c-5 -3 -10 -4 -14 -4c-13 0 -22 10 -22 22
c0 11 6 17 16 24c21 14 98 52 179 52c91 0 156 -48 156 -139v-248zM369 217l-184 -15c-46 -4 -88 -28 -88 -84c0 -49 31 -86 101 -86c57 0 101 24 171 65v120zM76 562l155 124c6 5 12 8 19 8c6 0 11 -3 16 -7l156 -125c8 -7 12 -12 12 -21c0 -12 -9 -23 -23 -23
c-4 0 -10 1 -15 5l-147 119l-147 -119c-5 -4 -11 -5 -15 -5c-14 0 -23 11 -23 23c0 9 4 14 12 21z" />
    <glyph glyph-name="adieresis" unicode="&#xe4;" horiz-adv-x="490" 
d="M419 75l5 -30c3 -17 4 -25 4 -29c0 -14 -12 -20 -25 -20s-21 6 -24 25l-6 34c-70 -43 -118 -65 -182 -65c-107 0 -144 63 -144 126c0 53 26 120 145 129l177 13v60c0 57 -34 101 -112 101c-62 0 -113 -28 -153 -51c-5 -3 -10 -4 -14 -4c-13 0 -22 10 -22 22
c0 11 6 17 16 24c21 14 98 52 179 52c91 0 156 -48 156 -139v-248zM369 217l-184 -15c-46 -4 -88 -28 -88 -84c0 -49 31 -86 101 -86c57 0 101 24 171 65v120zM160 634c23 0 42 -19 42 -42s-19 -41 -42 -41s-42 18 -42 41s19 42 42 42zM340 634c23 0 42 -19 42 -42
s-19 -41 -42 -41s-42 18 -42 41s19 42 42 42z" />
    <glyph glyph-name="atilde" unicode="&#xe3;" horiz-adv-x="490" 
d="M419 75l5 -30c3 -17 4 -25 4 -29c0 -14 -12 -20 -25 -20s-21 6 -24 25l-6 34c-70 -43 -118 -65 -182 -65c-107 0 -144 63 -144 126c0 53 26 120 145 129l177 13v60c0 57 -34 101 -112 101c-62 0 -113 -28 -153 -51c-5 -3 -10 -4 -14 -4c-13 0 -22 10 -22 22
c0 11 6 17 16 24c21 14 98 52 179 52c91 0 156 -48 156 -139v-248zM369 217l-184 -15c-46 -4 -88 -28 -88 -84c0 -49 31 -86 101 -86c57 0 101 24 171 65v120zM326 553c-64 0 -115 56 -162 56c-30 0 -43 -23 -52 -40c-6 -11 -11 -16 -21 -16c-13 0 -20 9 -20 20
c0 23 34 80 98 80s112 -56 161 -56c30 0 42 20 53 40c6 11 11 16 21 16c13 0 20 -9 20 -20c0 -23 -34 -80 -98 -80z" />
    <glyph glyph-name="aring" unicode="&#xe5;" horiz-adv-x="490" 
d="M419 75l5 -30c3 -17 4 -25 4 -29c0 -14 -12 -20 -25 -20s-21 6 -24 25l-6 34c-70 -43 -118 -65 -182 -65c-107 0 -144 63 -144 126c0 53 26 120 145 129l177 13v60c0 57 -34 101 -112 101c-62 0 -113 -28 -153 -51c-5 -3 -10 -4 -14 -4c-13 0 -22 10 -22 22
c0 11 6 17 16 24c21 14 98 52 179 52c91 0 156 -48 156 -139v-248zM369 217l-184 -15c-46 -4 -88 -28 -88 -84c0 -49 31 -86 101 -86c57 0 101 24 171 65v120zM380 645c0 -72 -56 -129 -129 -129c-74 0 -129 57 -129 129s55 129 129 129c73 0 129 -57 129 -129zM334 645
c0 49 -33 89 -84 89c-50 0 -82 -40 -82 -89c0 -50 32 -90 82 -90c51 0 84 40 84 90z" />
    <glyph glyph-name="ccedilla" unicode="&#xe7;" horiz-adv-x="481" 
d="M253 -10h-9l-19 -73s13 2 27 2c39 0 101 -16 101 -83c0 -63 -57 -95 -122 -95c-40 0 -68 12 -80 19c-14 8 -14 15 -14 17c0 14 9 21 17 21c14 0 31 -20 79 -20c45 0 78 17 78 55c0 37 -30 50 -57 50c-11 0 -34 -2 -42 -2c-13 0 -27 5 -27 22c0 8 3 21 7 37l13 55
c-97 20 -158 105 -158 226c0 156 102 241 209 241c54 0 141 -22 165 -49c6 -7 10 -15 10 -21c0 -8 -8 -21 -20 -21c-5 0 -10 2 -17 6c-33 20 -72 42 -127 42c-89 0 -170 -56 -170 -193c0 -122 65 -194 166 -194c64 0 104 29 135 52c8 6 14 10 22 10c13 0 19 -12 19 -19
c0 -17 -31 -41 -67 -59c-32 -16 -63 -26 -119 -26z" />
    <glyph glyph-name="eacute" unicode="&#xe9;" horiz-adv-x="499" 
d="M259 -10c-130 0 -212 89 -212 231c0 155 97 241 214 241c134 0 191 -114 191 -194c0 -24 -5 -35 -24 -35h-331c0 -136 68 -201 163 -201c64 0 104 29 135 52c8 6 14 10 22 10c13 0 19 -12 19 -19c0 -17 -31 -41 -67 -59c-32 -16 -67 -26 -110 -26zM102 276h300
c-8 101 -71 144 -144 144c-66 0 -138 -35 -156 -144zM387 659l-241 -138c-5 -3 -10 -4 -14 -4c-14 0 -24 11 -24 24c0 8 4 15 13 21l241 138c5 3 10 4 14 4c15 0 24 -13 24 -25c0 -8 -4 -15 -13 -20z" />
    <glyph glyph-name="egrave" unicode="&#xe8;" horiz-adv-x="499" 
d="M259 -10c-130 0 -212 89 -212 231c0 155 97 241 214 241c134 0 191 -114 191 -194c0 -24 -5 -35 -24 -35h-331c0 -136 68 -201 163 -201c64 0 104 29 135 52c8 6 14 10 22 10c13 0 19 -12 19 -19c0 -17 -31 -41 -67 -59c-32 -16 -67 -26 -110 -26zM102 276h300
c-8 101 -71 144 -144 144c-66 0 -138 -35 -156 -144zM362 521l-241 138c-9 5 -13 12 -13 20c0 12 9 25 24 25c4 0 9 -1 14 -4l241 -138c9 -6 13 -13 13 -21c0 -13 -10 -24 -24 -24c-4 0 -9 1 -14 4z" />
    <glyph glyph-name="ecircumflex" unicode="&#xea;" horiz-adv-x="499" 
d="M259 -10c-130 0 -212 89 -212 231c0 155 97 241 214 241c134 0 191 -114 191 -194c0 -24 -5 -35 -24 -35h-331c0 -136 68 -201 163 -201c64 0 104 29 135 52c8 6 14 10 22 10c13 0 19 -12 19 -19c0 -17 -31 -41 -67 -59c-32 -16 -67 -26 -110 -26zM102 276h300
c-8 101 -71 144 -144 144c-66 0 -138 -35 -156 -144zM81 562l155 124c6 5 12 8 19 8c6 0 11 -3 16 -7l156 -125c8 -7 12 -12 12 -21c0 -12 -9 -23 -23 -23c-4 0 -10 1 -15 5l-147 119l-147 -119c-5 -4 -11 -5 -15 -5c-14 0 -23 11 -23 23c0 9 4 14 12 21z" />
    <glyph glyph-name="edieresis" unicode="&#xeb;" horiz-adv-x="499" 
d="M259 -10c-130 0 -212 89 -212 231c0 155 97 241 214 241c134 0 191 -114 191 -194c0 -24 -5 -35 -24 -35h-331c0 -136 68 -201 163 -201c64 0 104 29 135 52c8 6 14 10 22 10c13 0 19 -12 19 -19c0 -17 -31 -41 -67 -59c-32 -16 -67 -26 -110 -26zM102 276h300
c-8 101 -71 144 -144 144c-66 0 -138 -35 -156 -144zM155 634c23 0 42 -19 42 -42s-19 -41 -42 -41s-42 18 -42 41s19 42 42 42zM335 634c23 0 42 -19 42 -42s-19 -41 -42 -41s-42 18 -42 41s19 42 42 42z" />
    <glyph glyph-name="iacute" unicode="&#xed;" horiz-adv-x="228" 
d="M138 430v-408c0 -18 -12 -26 -25 -26s-25 8 -25 26v408c0 18 12 26 25 26s25 -8 25 -26zM247 659l-241 -138c-5 -3 -10 -4 -14 -4c-14 0 -24 11 -24 24c0 8 4 15 13 21l241 138c5 3 10 4 14 4c15 0 24 -13 24 -25c0 -8 -4 -15 -13 -20z" />
    <glyph glyph-name="igrave" unicode="&#xec;" horiz-adv-x="228" 
d="M138 430v-408c0 -18 -12 -26 -25 -26s-25 8 -25 26v408c0 18 12 26 25 26s25 -8 25 -26zM222 521l-241 138c-9 5 -13 12 -13 20c0 12 9 25 24 25c4 0 9 -1 14 -4l241 -138c9 -6 13 -13 13 -21c0 -13 -10 -24 -24 -24c-4 0 -9 1 -14 4z" />
    <glyph glyph-name="icircumflex" unicode="&#xee;" horiz-adv-x="228" 
d="M138 430v-408c0 -18 -12 -26 -25 -26s-25 8 -25 26v408c0 18 12 26 25 26s25 -8 25 -26zM-59 562l155 124c6 5 12 8 19 8c6 0 11 -3 16 -7l156 -125c8 -7 12 -12 12 -21c0 -12 -9 -23 -23 -23c-4 0 -10 1 -15 5l-147 119l-147 -119c-5 -4 -11 -5 -15 -5
c-14 0 -23 11 -23 23c0 9 4 14 12 21z" />
    <glyph glyph-name="idieresis" unicode="&#xef;" horiz-adv-x="228" 
d="M138 430v-408c0 -18 -12 -26 -25 -26s-25 8 -25 26v408c0 18 12 26 25 26s25 -8 25 -26zM24 634c23 0 42 -19 42 -42s-19 -41 -42 -41s-42 18 -42 41s19 42 42 42zM204 634c23 0 42 -19 42 -42s-19 -41 -42 -41s-42 18 -42 41s19 42 42 42z" />
    <glyph glyph-name="ntilde" unicode="&#xf1;" 
d="M127 430v-53l73 41c55 31 95 44 138 44c86 0 131 -53 131 -161v-279c0 -18 -12 -26 -25 -26s-25 8 -25 26v267c0 92 -26 126 -88 126c-45 0 -83 -18 -136 -48l-68 -39v-306c0 -18 -12 -26 -25 -26s-25 8 -25 26v408c0 18 12 26 25 26s25 -8 25 -26zM351 553
c-64 0 -115 56 -162 56c-30 0 -43 -23 -52 -40c-6 -11 -11 -16 -21 -16c-13 0 -20 9 -20 20c0 23 34 80 98 80s112 -56 161 -56c30 0 42 20 53 40c6 11 11 16 21 16c13 0 20 -9 20 -20c0 -23 -34 -80 -98 -80z" />
    <glyph glyph-name="oacute" unicode="&#xf3;" horiz-adv-x="522" 
d="M47 226c0 134 87 236 214 236s214 -102 214 -236s-87 -236 -214 -236s-214 102 -214 236zM425 226c0 107 -63 194 -164 194s-164 -87 -164 -194s63 -194 164 -194s164 87 164 194zM394 659l-241 -138c-5 -3 -10 -4 -14 -4c-14 0 -24 11 -24 24c0 8 4 15 13 21l241 138
c5 3 10 4 14 4c15 0 24 -13 24 -25c0 -8 -4 -15 -13 -20z" />
    <glyph glyph-name="ograve" unicode="&#xf2;" horiz-adv-x="522" 
d="M47 226c0 134 87 236 214 236s214 -102 214 -236s-87 -236 -214 -236s-214 102 -214 236zM425 226c0 107 -63 194 -164 194s-164 -87 -164 -194s63 -194 164 -194s164 87 164 194zM389 521l-241 138c-9 5 -13 12 -13 20c0 12 9 25 24 25c4 0 9 -1 14 -4l241 -138
c9 -6 13 -13 13 -21c0 -13 -10 -24 -24 -24c-4 0 -9 1 -14 4z" />
    <glyph glyph-name="ocircumflex" unicode="&#xf4;" horiz-adv-x="522" 
d="M47 226c0 134 87 236 214 236s214 -102 214 -236s-87 -236 -214 -236s-214 102 -214 236zM425 226c0 107 -63 194 -164 194s-164 -87 -164 -194s63 -194 164 -194s164 87 164 194zM88 562l155 124c6 5 12 8 19 8c6 0 11 -3 16 -7l156 -125c8 -7 12 -12 12 -21
c0 -12 -9 -23 -23 -23c-4 0 -10 1 -15 5l-147 119l-147 -119c-5 -4 -11 -5 -15 -5c-14 0 -23 11 -23 23c0 9 4 14 12 21z" />
    <glyph glyph-name="odieresis" unicode="&#xf6;" horiz-adv-x="522" 
d="M47 226c0 134 87 236 214 236s214 -102 214 -236s-87 -236 -214 -236s-214 102 -214 236zM425 226c0 107 -63 194 -164 194s-164 -87 -164 -194s63 -194 164 -194s164 87 164 194zM171 634c23 0 42 -19 42 -42s-19 -41 -42 -41s-42 18 -42 41s19 42 42 42zM351 634
c23 0 42 -19 42 -42s-19 -41 -42 -41s-42 18 -42 41s19 42 42 42z" />
    <glyph glyph-name="otilde" unicode="&#xf5;" horiz-adv-x="522" 
d="M47 226c0 134 87 236 214 236s214 -102 214 -236s-87 -236 -214 -236s-214 102 -214 236zM425 226c0 107 -63 194 -164 194s-164 -87 -164 -194s63 -194 164 -194s164 87 164 194zM339 553c-64 0 -115 56 -162 56c-30 0 -43 -23 -52 -40c-6 -11 -11 -16 -21 -16
c-13 0 -20 9 -20 20c0 23 34 80 98 80s112 -56 161 -56c30 0 42 20 53 40c6 11 11 16 21 16c13 0 20 -9 20 -20c0 -23 -34 -80 -98 -80z" />
    <glyph glyph-name="uacute" unicode="&#xfa;" 
d="M419 22v53l-73 -41c-55 -31 -95 -44 -138 -44c-86 0 -131 53 -131 161v279c0 18 12 26 25 26s25 -8 25 -26v-267c0 -92 26 -126 88 -126c45 0 83 18 136 48l68 39v306c0 18 12 26 25 26s25 -8 25 -26v-408c0 -18 -12 -26 -25 -26s-25 8 -25 26zM424 659l-241 -138
c-5 -3 -10 -4 -14 -4c-14 0 -24 11 -24 24c0 8 4 15 13 21l241 138c5 3 10 4 14 4c15 0 24 -13 24 -25c0 -8 -4 -15 -13 -20z" />
    <glyph glyph-name="ugrave" unicode="&#xf9;" 
d="M419 22v53l-73 -41c-55 -31 -95 -44 -138 -44c-86 0 -131 53 -131 161v279c0 18 12 26 25 26s25 -8 25 -26v-267c0 -92 26 -126 88 -126c45 0 83 18 136 48l68 39v306c0 18 12 26 25 26s25 -8 25 -26v-408c0 -18 -12 -26 -25 -26s-25 8 -25 26zM381 521l-241 138
c-9 5 -13 12 -13 20c0 12 9 25 24 25c4 0 9 -1 14 -4l241 -138c9 -6 13 -13 13 -21c0 -13 -10 -24 -24 -24c-4 0 -9 1 -14 4z" />
    <glyph glyph-name="ucircumflex" unicode="&#xfb;" 
d="M419 22v53l-73 -41c-55 -31 -95 -44 -138 -44c-86 0 -131 53 -131 161v279c0 18 12 26 25 26s25 -8 25 -26v-267c0 -92 26 -126 88 -126c45 0 83 18 136 48l68 39v306c0 18 12 26 25 26s25 -8 25 -26v-408c0 -18 -12 -26 -25 -26s-25 8 -25 26zM100 562l155 124
c6 5 12 8 19 8c6 0 11 -3 16 -7l156 -125c8 -7 12 -12 12 -21c0 -12 -9 -23 -23 -23c-4 0 -10 1 -15 5l-147 119l-147 -119c-5 -4 -11 -5 -15 -5c-14 0 -23 11 -23 23c0 9 4 14 12 21z" />
    <glyph glyph-name="udieresis" unicode="&#xfc;" 
d="M419 22v53l-73 -41c-55 -31 -95 -44 -138 -44c-86 0 -131 53 -131 161v279c0 18 12 26 25 26s25 -8 25 -26v-267c0 -92 26 -126 88 -126c45 0 83 18 136 48l68 39v306c0 18 12 26 25 26s25 -8 25 -26v-408c0 -18 -12 -26 -25 -26s-25 8 -25 26zM183 634
c23 0 42 -19 42 -42s-19 -41 -42 -41s-42 18 -42 41s19 42 42 42zM363 634c23 0 42 -19 42 -42s-19 -41 -42 -41s-42 18 -42 41s19 42 42 42z" />
    <glyph glyph-name="Adieresis" unicode="&#xc4;" horiz-adv-x="548" 
d="M157 242l-70 -228c-4 -13 -14 -18 -24 -18c-13 0 -26 8 -26 22c0 4 1 8 2 11l209 661c3 9 11 18 26 18c11 0 22 -6 26 -18l209 -661c1 -3 2 -7 2 -11c0 -14 -13 -22 -26 -22c-10 0 -20 5 -24 18l-71 228h-233zM376 289l-99 322h-5l-100 -322h204zM184 882
c23 0 42 -19 42 -42s-19 -41 -42 -41s-42 18 -42 41s19 42 42 42zM364 882c23 0 42 -19 42 -42s-19 -41 -42 -41s-42 18 -42 41s19 42 42 42z" />
    <glyph glyph-name="Aring" unicode="&#xc5;" horiz-adv-x="548" 
d="M303 681l206 -652c1 -3 2 -7 2 -11c0 -14 -13 -22 -26 -22c-10 0 -20 5 -24 18l-71 228h-233l-70 -228c-4 -13 -14 -18 -24 -18c-13 0 -26 8 -26 22c0 4 1 8 2 11l206 652c-58 12 -100 63 -100 126c0 72 55 129 129 129s129 -57 129 -129c0 -62 -41 -113 -100 -126z
M357 807c0 49 -33 89 -84 89c-50 0 -82 -40 -82 -89c0 -50 32 -90 82 -90c51 0 84 40 84 90zM376 289l-99 322h-5l-100 -322h204z" />
    <glyph glyph-name="Ccedilla" unicode="&#xc7;" horiz-adv-x="594" 
d="M517 622c5 -7 7 -12 7 -18c0 -12 -10 -22 -22 -22c-8 0 -15 4 -23 12c-34 33 -78 73 -153 73c-134 0 -218 -127 -218 -321c0 -187 78 -313 214 -313c50 0 99 17 142 48c10 7 15 12 22 18c8 7 14 9 20 9c11 0 21 -7 21 -21c0 -5 -1 -8 -6 -15c-33 -45 -120 -82 -202 -82
c-14 0 -16 1 -23 1l-19 -74s13 2 27 2c39 0 101 -16 101 -83c0 -63 -57 -95 -122 -95c-40 0 -68 12 -80 19c-14 8 -14 15 -14 17c0 14 9 21 17 21c14 0 31 -20 79 -20c45 0 78 17 78 55c0 37 -30 50 -57 50c-11 0 -34 -2 -42 -2c-13 0 -27 5 -27 22c0 8 3 21 7 37l14 56
c-133 28 -201 167 -201 348c0 226 105 366 261 366c85 0 166 -41 199 -88z" />
    <glyph glyph-name="Eacute" unicode="&#xc9;" horiz-adv-x="503" 
d="M391 330h-264v-282h291c18 0 25 -12 25 -24c0 -13 -7 -24 -25 -24h-316c-13 0 -25 8 -25 26v648c0 18 12 26 25 26h316c18 0 25 -11 25 -24c0 -12 -7 -24 -25 -24h-291v-274h264c18 0 25 -11 25 -24c0 -12 -7 -24 -25 -24zM393 927l-241 -138c-5 -3 -10 -4 -14 -4
c-14 0 -24 11 -24 24c0 8 4 15 13 21l241 138c5 3 10 4 14 4c15 0 24 -13 24 -25c0 -8 -4 -15 -13 -20z" />
    <glyph glyph-name="Ntilde" unicode="&#xd1;" horiz-adv-x="626" 
d="M493 15l-366 592v-585c0 -18 -12 -26 -25 -26s-25 8 -25 26v653c0 18 12 29 28 29c10 0 19 -4 27 -17l367 -594v585c0 18 12 26 25 26s25 -8 25 -26v-653c0 -21 -12 -29 -27 -29c-17 0 -24 11 -29 19zM391 785c-64 0 -115 56 -162 56c-30 0 -43 -23 -52 -40
c-6 -11 -11 -16 -21 -16c-13 0 -20 9 -20 20c0 23 34 80 98 80s112 -56 161 -56c30 0 42 20 53 40c6 11 11 16 21 16c13 0 20 -9 20 -20c0 -23 -34 -80 -98 -80z" />
    <glyph glyph-name="Odieresis" unicode="&#xd6;" horiz-adv-x="632" 
d="M57 350c0 221 104 360 259 360c154 0 259 -139 259 -360s-105 -360 -259 -360c-155 0 -259 139 -259 360zM523 350c0 190 -75 317 -207 317c-133 0 -208 -127 -208 -317s75 -317 208 -317c132 0 207 127 207 317zM226 882c23 0 42 -19 42 -42s-19 -41 -42 -41
s-42 18 -42 41s19 42 42 42zM406 882c23 0 42 -19 42 -42s-19 -41 -42 -41s-42 18 -42 41s19 42 42 42z" />
    <glyph glyph-name="Udieresis" unicode="&#xdc;" horiz-adv-x="616" 
d="M308 33c115 0 191 67 191 211v434c0 18 12 26 25 26s25 -8 25 -26v-428c0 -229 -151 -260 -241 -260s-241 31 -241 260v428c0 18 12 26 25 26s25 -8 25 -26v-434c0 -144 76 -211 191 -211zM218 882c23 0 42 -19 42 -42s-19 -41 -42 -41s-42 18 -42 41s19 42 42 42z
M398 882c23 0 42 -19 42 -42s-19 -41 -42 -41s-42 18 -42 41s19 42 42 42z" />
    <glyph glyph-name="aacute" unicode="&#xe1;" horiz-adv-x="490" 
d="M419 75l5 -30c3 -17 4 -25 4 -29c0 -14 -12 -20 -25 -20s-21 6 -24 25l-6 34c-70 -43 -118 -65 -182 -65c-107 0 -144 63 -144 126c0 53 26 120 145 129l177 13v60c0 57 -34 101 -112 101c-62 0 -113 -28 -153 -51c-5 -3 -10 -4 -14 -4c-13 0 -22 10 -22 22
c0 11 6 17 16 24c21 14 98 52 179 52c91 0 156 -48 156 -139v-248zM369 217l-184 -15c-46 -4 -88 -28 -88 -84c0 -49 31 -86 101 -86c57 0 101 24 171 65v120zM380 659l-241 -138c-5 -3 -10 -4 -14 -4c-14 0 -24 11 -24 24c0 8 4 15 13 21l241 138c5 3 10 4 14 4
c15 0 24 -13 24 -25c0 -8 -4 -15 -13 -20z" />
    <glyph glyph-name="Agrave" unicode="&#xc0;" horiz-adv-x="548" 
d="M157 242l-70 -228c-4 -13 -14 -18 -24 -18c-13 0 -26 8 -26 22c0 4 1 8 2 11l209 661c3 9 11 18 26 18c11 0 22 -6 26 -18l209 -661c1 -3 2 -7 2 -11c0 -14 -13 -22 -26 -22c-10 0 -20 5 -24 18l-71 228h-233zM376 289l-99 322h-5l-100 -322h204zM403 789l-241 138
c-9 5 -13 12 -13 20c0 12 9 25 24 25c4 0 9 -1 14 -4l241 -138c9 -6 13 -13 13 -21c0 -13 -10 -24 -24 -24c-4 0 -9 1 -14 4z" />
    <glyph glyph-name="ydieresis" unicode="&#xff;" horiz-adv-x="459" 
d="M201 5l-180 412c-2 4 -4 11 -4 16c0 11 9 23 25 23c10 0 19 -5 24 -17l162 -380l166 379c5 12 14 17 24 17c16 0 24 -11 24 -22c0 -5 -2 -12 -4 -16l-200 -449c-36 -81 -75 -133 -119 -163c-31 -21 -67 -33 -99 -33c-24 0 -33 7 -33 22c0 12 6 23 25 24c33 2 49 3 83 28
c28 21 64 62 86 113zM140 634c23 0 42 -19 42 -42s-19 -41 -42 -41s-42 18 -42 41s19 42 42 42zM320 634c23 0 42 -19 42 -42s-19 -41 -42 -41s-42 18 -42 41s19 42 42 42z" />
    <glyph glyph-name="Ydieresis" unicode="&#x178;" horiz-adv-x="592" 
d="M297 317l191 372c5 10 13 15 24 15c15 0 23 -11 23 -23c0 -6 -2 -12 -4 -16l-210 -398v-245c0 -18 -12 -26 -25 -26s-25 8 -25 26v245l-210 398c-2 4 -4 10 -4 16c0 12 8 23 23 23c11 0 19 -5 24 -15zM206 878c23 0 42 -19 42 -42s-19 -41 -42 -41s-42 18 -42 41
s19 42 42 42zM386 878c23 0 42 -19 42 -42s-19 -41 -42 -41s-42 18 -42 41s19 42 42 42z" />
    <glyph glyph-name="Acircumflex" unicode="&#xc2;" horiz-adv-x="548" 
d="M157 242l-70 -228c-4 -13 -14 -18 -24 -18c-13 0 -26 8 -26 22c0 4 1 8 2 11l209 661c3 9 11 18 26 18c11 0 22 -6 26 -18l209 -661c1 -3 2 -7 2 -11c0 -14 -13 -22 -26 -22c-10 0 -20 5 -24 18l-71 228h-233zM376 289l-99 322h-5l-100 -322h204zM101 829l155 124
c6 5 12 8 19 8c6 0 11 -3 16 -7l156 -125c8 -7 12 -12 12 -21c0 -12 -9 -23 -23 -23c-4 0 -10 1 -15 5l-147 119l-147 -119c-5 -4 -11 -5 -15 -5c-14 0 -23 11 -23 23c0 9 4 14 12 21z" />
    <glyph glyph-name="Ecircumflex" unicode="&#xca;" horiz-adv-x="503" 
d="M391 330h-264v-282h291c18 0 25 -12 25 -24c0 -13 -7 -24 -25 -24h-316c-13 0 -25 8 -25 26v648c0 18 12 26 25 26h316c18 0 25 -11 25 -24c0 -12 -7 -24 -25 -24h-291v-274h264c18 0 25 -11 25 -24c0 -12 -7 -24 -25 -24zM85 829l155 124c6 5 12 8 19 8c6 0 11 -3 16 -7
l156 -125c8 -7 12 -12 12 -21c0 -12 -9 -23 -23 -23c-4 0 -10 1 -15 5l-147 119l-147 -119c-5 -4 -11 -5 -15 -5c-14 0 -23 11 -23 23c0 9 4 14 12 21z" />
    <glyph glyph-name="Aacute" unicode="&#xc1;" horiz-adv-x="548" 
d="M157 242l-70 -228c-4 -13 -14 -18 -24 -18c-13 0 -26 8 -26 22c0 4 1 8 2 11l209 661c3 9 11 18 26 18c11 0 22 -6 26 -18l209 -661c1 -3 2 -7 2 -11c0 -14 -13 -22 -26 -22c-10 0 -20 5 -24 18l-71 228h-233zM376 289l-99 322h-5l-100 -322h204zM407 927l-241 -138
c-5 -3 -10 -4 -14 -4c-14 0 -24 11 -24 24c0 8 4 15 13 21l241 138c5 3 10 4 14 4c15 0 24 -13 24 -25c0 -8 -4 -15 -13 -20z" />
    <glyph glyph-name="Edieresis" unicode="&#xcb;" horiz-adv-x="503" 
d="M391 330h-264v-282h291c18 0 25 -12 25 -24c0 -13 -7 -24 -25 -24h-316c-13 0 -25 8 -25 26v648c0 18 12 26 25 26h316c18 0 25 -11 25 -24c0 -12 -7 -24 -25 -24h-291v-274h264c18 0 25 -11 25 -24c0 -12 -7 -24 -25 -24zM170 878c23 0 42 -19 42 -42s-19 -41 -42 -41
s-42 18 -42 41s19 42 42 42zM350 878c23 0 42 -19 42 -42s-19 -41 -42 -41s-42 18 -42 41s19 42 42 42z" />
    <glyph glyph-name="Egrave" unicode="&#xc8;" horiz-adv-x="503" 
d="M391 330h-264v-282h291c18 0 25 -12 25 -24c0 -13 -7 -24 -25 -24h-316c-13 0 -25 8 -25 26v648c0 18 12 26 25 26h316c18 0 25 -11 25 -24c0 -12 -7 -24 -25 -24h-291v-274h264c18 0 25 -11 25 -24c0 -12 -7 -24 -25 -24zM368 789l-241 138c-9 5 -13 12 -13 20
c0 12 9 25 24 25c4 0 9 -1 14 -4l241 -138c9 -6 13 -13 13 -21c0 -13 -10 -24 -24 -24c-4 0 -9 1 -14 4z" />
    <glyph glyph-name="Iacute" unicode="&#xcd;" horiz-adv-x="204" 
d="M127 678v-656c0 -18 -12 -26 -25 -26s-25 8 -25 26v656c0 18 12 26 25 26s25 -8 25 -26zM235 927l-241 -138c-5 -3 -10 -4 -14 -4c-14 0 -24 11 -24 24c0 8 4 15 13 21l241 138c5 3 10 4 14 4c15 0 24 -13 24 -25c0 -8 -4 -15 -13 -20z" />
    <glyph glyph-name="Icircumflex" unicode="&#xce;" horiz-adv-x="204" 
d="M127 678v-656c0 -18 -12 -26 -25 -26s-25 8 -25 26v656c0 18 12 26 25 26s25 -8 25 -26zM-71 829l155 124c6 5 12 8 19 8c6 0 11 -3 16 -7l156 -125c8 -7 12 -12 12 -21c0 -12 -9 -23 -23 -23c-4 0 -10 1 -15 5l-147 119l-147 -119c-5 -4 -11 -5 -15 -5
c-14 0 -23 11 -23 23c0 9 4 14 12 21z" />
    <glyph glyph-name="Idieresis" unicode="&#xcf;" horiz-adv-x="204" 
d="M127 678v-656c0 -18 -12 -26 -25 -26s-25 8 -25 26v656c0 18 12 26 25 26s25 -8 25 -26zM13 878c23 0 42 -19 42 -42s-19 -41 -42 -41s-42 18 -42 41s19 42 42 42zM193 878c23 0 42 -19 42 -42s-19 -41 -42 -41s-42 18 -42 41s19 42 42 42z" />
    <glyph glyph-name="Igrave" unicode="&#xcc;" horiz-adv-x="204" 
d="M127 678v-656c0 -18 -12 -26 -25 -26s-25 8 -25 26v656c0 18 12 26 25 26s25 -8 25 -26zM210 789l-241 138c-9 5 -13 12 -13 20c0 12 9 25 24 25c4 0 9 -1 14 -4l241 -138c9 -6 13 -13 13 -21c0 -13 -10 -24 -24 -24c-4 0 -9 1 -14 4z" />
    <glyph glyph-name="Oacute" unicode="&#xd3;" horiz-adv-x="632" 
d="M57 350c0 221 104 360 259 360c154 0 259 -139 259 -360s-105 -360 -259 -360c-155 0 -259 139 -259 360zM523 350c0 190 -75 317 -207 317c-133 0 -208 -127 -208 -317s75 -317 208 -317c132 0 207 127 207 317zM449 927l-241 -138c-5 -3 -10 -4 -14 -4
c-14 0 -24 11 -24 24c0 8 4 15 13 21l241 138c5 3 10 4 14 4c15 0 24 -13 24 -25c0 -8 -4 -15 -13 -20z" />
    <glyph glyph-name="Ocircumflex" unicode="&#xd4;" horiz-adv-x="632" 
d="M57 350c0 221 104 360 259 360c154 0 259 -139 259 -360s-105 -360 -259 -360c-155 0 -259 139 -259 360zM523 350c0 190 -75 317 -207 317c-133 0 -208 -127 -208 -317s75 -317 208 -317c132 0 207 127 207 317zM143 829l155 124c6 5 12 8 19 8c6 0 11 -3 16 -7
l156 -125c8 -7 12 -12 12 -21c0 -12 -9 -23 -23 -23c-4 0 -10 1 -15 5l-147 119l-147 -119c-5 -4 -11 -5 -15 -5c-14 0 -23 11 -23 23c0 9 4 14 12 21z" />
    <glyph glyph-name="Ograve" unicode="&#xd2;" horiz-adv-x="632" 
d="M57 350c0 221 104 360 259 360c154 0 259 -139 259 -360s-105 -360 -259 -360c-155 0 -259 139 -259 360zM523 350c0 190 -75 317 -207 317c-133 0 -208 -127 -208 -317s75 -317 208 -317c132 0 207 127 207 317zM424 789l-241 138c-9 5 -13 12 -13 20c0 12 9 25 24 25
c4 0 9 -1 14 -4l241 -138c9 -6 13 -13 13 -21c0 -13 -10 -24 -24 -24c-4 0 -9 1 -14 4z" />
    <glyph glyph-name="Uacute" unicode="&#xda;" horiz-adv-x="616" 
d="M308 33c115 0 191 67 191 211v434c0 18 12 26 25 26s25 -8 25 -26v-428c0 -229 -151 -260 -241 -260s-241 31 -241 260v428c0 18 12 26 25 26s25 -8 25 -26v-434c0 -144 76 -211 191 -211zM443 927l-241 -138c-5 -3 -10 -4 -14 -4c-14 0 -24 11 -24 24c0 8 4 15 13 21
l241 138c5 3 10 4 14 4c15 0 24 -13 24 -25c0 -8 -4 -15 -13 -20z" />
    <glyph glyph-name="Ucircumflex" unicode="&#xdb;" horiz-adv-x="616" 
d="M308 33c115 0 191 67 191 211v434c0 18 12 26 25 26s25 -8 25 -26v-428c0 -229 -151 -260 -241 -260s-241 31 -241 260v428c0 18 12 26 25 26s25 -8 25 -26v-434c0 -144 76 -211 191 -211zM135 829l155 124c6 5 12 8 19 8c6 0 11 -3 16 -7l156 -125c8 -7 12 -12 12 -21
c0 -12 -9 -23 -23 -23c-4 0 -10 1 -15 5l-147 119l-147 -119c-5 -4 -11 -5 -15 -5c-14 0 -23 11 -23 23c0 9 4 14 12 21z" />
    <glyph glyph-name="Ugrave" unicode="&#xd9;" horiz-adv-x="616" 
d="M308 33c115 0 191 67 191 211v434c0 18 12 26 25 26s25 -8 25 -26v-428c0 -229 -151 -260 -241 -260s-241 31 -241 260v428c0 18 12 26 25 26s25 -8 25 -26v-434c0 -144 76 -211 191 -211zM424 789l-241 138c-9 5 -13 12 -13 20c0 12 9 25 24 25c4 0 9 -1 14 -4l241 -138
c9 -6 13 -13 13 -21c0 -13 -10 -24 -24 -24c-4 0 -9 1 -14 4z" />
    <glyph glyph-name="Atilde" unicode="&#xc3;" horiz-adv-x="548" 
d="M157 242l-70 -228c-4 -13 -14 -18 -24 -18c-13 0 -26 8 -26 22c0 4 1 8 2 11l209 661c3 9 11 18 26 18c11 0 22 -6 26 -18l209 -661c1 -3 2 -7 2 -11c0 -14 -13 -22 -26 -22c-10 0 -20 5 -24 18l-71 228h-233zM376 289l-99 322h-5l-100 -322h204zM352 785
c-64 0 -115 56 -162 56c-30 0 -43 -23 -52 -40c-6 -11 -11 -16 -21 -16c-13 0 -20 9 -20 20c0 23 34 80 98 80s112 -56 161 -56c30 0 42 20 53 40c6 11 11 16 21 16c13 0 20 -9 20 -20c0 -23 -34 -80 -98 -80z" />
    <glyph glyph-name="Otilde" unicode="&#xd5;" horiz-adv-x="632" 
d="M57 350c0 221 104 360 259 360c154 0 259 -139 259 -360s-105 -360 -259 -360c-155 0 -259 139 -259 360zM523 350c0 190 -75 317 -207 317c-133 0 -208 -127 -208 -317s75 -317 208 -317c132 0 207 127 207 317zM394 785c-64 0 -115 56 -162 56c-30 0 -43 -23 -52 -40
c-6 -11 -11 -16 -21 -16c-13 0 -20 9 -20 20c0 23 34 80 98 80s112 -56 161 -56c30 0 42 20 53 40c6 11 11 16 21 16c13 0 20 -9 20 -20c0 -23 -34 -80 -98 -80z" />
    <glyph glyph-name="Scaron" unicode="&#x160;" horiz-adv-x="514" 
d="M477 182c0 -102 -75 -192 -225 -192c-74 0 -147 22 -178 43c-12 8 -17 16 -17 25c0 13 9 23 23 23c6 0 12 -2 19 -5c52 -25 92 -43 154 -43c131 0 175 82 175 146c0 186 -365 136 -365 357c0 111 91 174 203 174c67 0 135 -23 169 -45c11 -7 17 -14 17 -24
s-7 -20 -21 -20c-6 0 -13 2 -21 6c-42 21 -83 41 -143 41c-103 0 -157 -58 -157 -128c0 -182 367 -132 367 -358zM249 793l-155 124c-8 7 -12 12 -12 21c0 12 9 23 23 23c4 0 10 -1 15 -5l147 -119l147 119c5 4 11 5 15 5c14 0 23 -11 23 -23c0 -9 -4 -14 -12 -21l-156 -125
c-5 -4 -10 -7 -16 -7c-7 0 -13 3 -19 8z" />
    <glyph glyph-name="scaron" unicode="&#x161;" horiz-adv-x="455" 
d="M114 342c0 -29 15 -47 40 -61c81 -45 244 -31 244 -158c0 -82 -69 -133 -183 -133c-60 0 -108 14 -136 33c-16 11 -20 19 -20 28c0 14 9 22 22 22c8 0 14 -3 23 -9c35 -22 64 -36 114 -36c78 0 133 34 133 91c0 91 -138 79 -221 123c-32 17 -62 45 -62 98
c0 89 85 122 156 122c35 0 103 -8 141 -29c16 -9 22 -19 22 -27c0 -11 -9 -19 -20 -19c-7 0 -14 3 -20 6c-34 17 -66 30 -115 30c-86 0 -118 -39 -118 -81zM209 526l-155 124c-8 7 -12 12 -12 21c0 12 9 23 23 23c4 0 10 -1 15 -5l147 -119l147 119c5 4 11 5 15 5
c14 0 23 -11 23 -23c0 -9 -4 -14 -12 -21l-156 -125c-5 -4 -10 -7 -16 -7c-7 0 -13 3 -19 8z" />
    <glyph glyph-name="yacute" unicode="&#xfd;" horiz-adv-x="459" 
d="M201 5l-180 412c-2 4 -4 11 -4 16c0 11 9 23 25 23c10 0 19 -5 24 -17l162 -380l166 379c5 12 14 17 24 17c16 0 24 -11 24 -22c0 -5 -2 -12 -4 -16l-200 -449c-36 -81 -75 -133 -119 -163c-31 -21 -67 -33 -99 -33c-24 0 -33 7 -33 22c0 12 6 23 25 24c33 2 49 3 83 28
c28 21 64 62 86 113zM399 659l-241 -138c-5 -3 -10 -4 -14 -4c-14 0 -24 11 -24 24c0 8 4 15 13 21l241 138c5 3 10 4 14 4c15 0 24 -13 24 -25c0 -8 -4 -15 -13 -20z" />
    <glyph glyph-name="apple" horiz-adv-x="1203" 
d="M1112 472c0 92 -34 177 -94 236c-50 49 -118 79 -198 79c-87 0 -161 -36 -218 -87c-66 57 -140 88 -220 88c-78 0 -146 -29 -196 -78c-60 -59 -95 -145 -95 -239c0 -92 34 -183 90 -266c44 -65 101 -124 171 -180c121 -97 233 -147 239 -149c7 -3 11 -3 18 0
s121 53 241 148c72 57 128 116 171 179c55 81 91 174 91 269zM1055 734c64 -66 101 -162 101 -263c0 -286 -300 -541 -525 -633c-29 -12 -35 -11 -62 0c-233 95 -522 355 -522 635c0 101 38 199 102 264c61 62 146 93 233 93c92 0 166 -35 224 -86c64 57 137 84 218 84
c88 0 171 -32 231 -94zM600 506c-32 0 -64 5 -92 14c27 47 58 93 94 130c33 -34 64 -80 93 -129c-29 -10 -62 -15 -95 -15zM1033 403l-40 89c-2 5 -6 9 -10 10c-3 1 -10 1 -14 -1l-129 -62c-8 -4 -13 -14 -9 -24l47 -105c4 -9 14 -13 23 -9c10 4 14 15 10 23l-40 90l33 15
l15 -33c4 -9 15 -13 24 -9s13 14 9 24l-15 34l31 15l32 -72c4 -9 15 -13 24 -9s13 15 9 24zM793 595l26 -50c7 -14 20 -25 35 -30c19 -6 38 -2 55 7c32 17 49 55 32 89l-33 67c-4 10 -17 12 -25 8l-135 -74c-9 -5 -12 -16 -7 -25s16 -12 25 -7zM749 97c0 10 -8 18 -18 18
h-179c72 38 173 96 173 190c0 60 -42 123 -124 123c-72 0 -130 -49 -130 -113c0 -49 34 -96 86 -96c36 0 79 22 79 72c0 37 -23 45 -36 45c-18 0 -33 -14 -33 -33c0 -12 6 -19 15 -26c2 -2 0 -22 -25 -22c-32 0 -48 32 -48 61c0 43 37 77 89 77c59 0 87 -44 87 -87
c0 -62 -60 -109 -109 -140c-47 -30 -97 -53 -100 -56c-5 -5 -7 -13 -4 -20s10 -11 17 -11h241c11 0 19 7 19 18zM211 362l17 50l114 -40c10 -4 20 1 23 11c4 9 -1 20 -11 23l-115 41l15 47c3 10 -2 20 -12 23c-9 3 -20 -2 -23 -12l-43 -132c-3 -9 2 -20 12 -23s20 2 23 12z
M354 597l-98 -22c-10 -2 -16 -12 -14 -22s12 -16 22 -14l104 23l9 -22c-4 -5 -7 -11 -7 -18c0 -14 12 -26 26 -26c6 0 13 3 17 8c10 9 8 24 4 34l-63 159c-4 9 -14 14 -24 10c-9 -4 -14 -14 -10 -24zM423 655c0 -18 14 -33 32 -33s32 15 32 33s-14 32 -32 32
c-19 0 -32 -15 -32 -32zM821 751c65 0 125 -23 171 -69c53 -52 83 -128 83 -211c0 -93 -37 -178 -84 -247c-42 -62 -96 -117 -164 -171c-102 -81 -202 -131 -227 -143c-25 12 -122 61 -226 144c-70 56 -123 112 -163 172c-52 75 -83 164 -83 247s31 159 84 211
c42 41 101 68 171 68c78 0 142 -34 193 -77c-35 -37 -68 -81 -99 -135c-70 -122 -107 -256 -123 -319l-50 10c-9 2 -19 -4 -21 -13s4 -18 14 -20l135 -29c9 -2 18 4 20 13c2 10 -4 19 -13 21l-48 10c14 56 45 167 100 274c33 -12 70 -19 109 -19s78 7 112 20
c53 -105 84 -216 98 -276l-48 -10c-9 -2 -15 -11 -14 -20s12 -16 21 -14l135 28c9 2 15 11 13 20c-1 10 -11 16 -20 14l-49 -10c0 1 -1 2 -1 3c-18 71 -53 196 -123 320c-30 53 -60 95 -95 131c56 48 120 77 192 77zM851 561l-26 52l59 32l25 -50c8 -16 -2 -34 -17 -42
c-14 -7 -33 -6 -41 8zM568 3c0 -18 14 -33 32 -33s32 15 32 33s-14 32 -32 32c-19 0 -32 -15 -32 -32z" />
    <glyph glyph-name="Zcaron" unicode="&#x17d;" horiz-adv-x="621" 
d="M533 645l-392 -597h378c18 0 25 -12 25 -24c0 -13 -7 -24 -25 -24h-412c-17 0 -30 10 -30 26c0 8 3 17 12 31l392 595h-369c-18 0 -25 12 -25 24c0 13 7 24 25 24h402c15 0 30 -7 30 -25c0 -7 -2 -16 -11 -30zM302 793l-155 124c-8 7 -12 12 -12 21c0 12 9 23 23 23
c4 0 10 -1 15 -5l147 -119l147 119c5 4 11 5 15 5c14 0 23 -11 23 -23c0 -9 -4 -14 -12 -21l-156 -125c-5 -4 -10 -7 -16 -7c-7 0 -13 3 -19 8z" />
    <glyph glyph-name="zcaron" unicode="&#x17e;" horiz-adv-x="461" 
d="M113 46h281c18 0 25 -11 25 -23c0 -11 -7 -23 -25 -23h-323c-19 0 -28 11 -28 24c0 7 3 15 8 21l289 360h-264c-18 0 -25 11 -25 23c0 11 7 23 25 23h306c19 0 28 -11 28 -24c0 -7 -3 -15 -8 -21zM218 526l-155 124c-8 7 -12 12 -12 21c0 12 9 23 23 23c4 0 10 -1 15 -5
l147 -119l147 119c5 4 11 5 15 5c14 0 23 -11 23 -23c0 -9 -4 -14 -12 -21l-156 -125c-5 -4 -10 -7 -16 -7c-7 0 -13 3 -19 8z" />
    <glyph glyph-name="Yacute" unicode="&#xdd;" horiz-adv-x="592" 
d="M297 317l191 372c5 10 13 15 24 15c15 0 23 -11 23 -23c0 -6 -2 -12 -4 -16l-210 -398v-245c0 -18 -12 -26 -25 -26s-25 8 -25 26v245l-210 398c-2 4 -4 10 -4 16c0 12 8 23 23 23c11 0 19 -5 24 -15zM432 927l-241 -138c-5 -3 -10 -4 -14 -4c-14 0 -24 11 -24 24
c0 8 4 15 13 21l241 138c5 3 10 4 14 4c15 0 24 -13 24 -25c0 -8 -4 -15 -13 -20z" />
    <glyph glyph-name="ellipsis" unicode="&#x2026;" horiz-adv-x="846" 
d="M77 52c0 34 28 62 62 62s62 -28 62 -62s-28 -62 -62 -62s-62 28 -62 62zM361 52c0 34 28 62 62 62s62 -28 62 -62s-28 -62 -62 -62s-62 28 -62 62zM645 52c0 34 28 62 62 62s62 -28 62 -62s-28 -62 -62 -62s-62 28 -62 62z" />
    </font>
</defs>
</svg>
